<svg xmlns="http://www.w3.org/2000/svg" xmlns:xlink="http://www.w3.org/1999/xlink" width="52.332" height="23.1" viewBox="0 0 52.332 23.1">
  <defs>
    <filter id="탐책" x="0" y="0" width="34.1" height="23.1" filterUnits="userSpaceOnUse">
      <feOffset dx="0.5" dy="0.5" input="SourceAlpha"/>
      <feGaussianBlur stdDeviation="0.25" result="blur"/>
      <feFlood flood-opacity="0.161"/>
      <feComposite operator="in" in2="blur"/>
      <feComposite in="SourceGraphic"/>
    </filter>
    <filter id="패스_131" x="30.29" y="5.83" width="17.54" height="15.261" filterUnits="userSpaceOnUse">
      <feOffset dx="0.5" dy="0.5" input="SourceAlpha"/>
      <feGaussianBlur stdDeviation="0.25" result="blur-2"/>
      <feFlood flood-opacity="0.161"/>
      <feComposite operator="in" in2="blur-2"/>
      <feComposite in="SourceGraphic"/>
    </filter>
    <filter id="타원_94" x="40.3" y="8.3" width="10.5" height="10.5" filterUnits="userSpaceOnUse">
      <feOffset dx="0.5" dy="0.5" input="SourceAlpha"/>
      <feGaussianBlur stdDeviation="0.25" result="blur-3"/>
      <feFlood flood-opacity="0.161"/>
      <feComposite operator="in" in2="blur-3"/>
      <feComposite in="SourceGraphic"/>
    </filter>
    <filter id="패스_130" x="46.593" y="14.754" width="5.739" height="6.013" filterUnits="userSpaceOnUse">
      <feOffset dx="0.5" input="SourceAlpha"/>
      <feGaussianBlur stdDeviation="0.25" result="blur-4"/>
      <feFlood flood-opacity="0.161"/>
      <feComposite operator="in" in2="blur-4"/>
      <feComposite in="SourceGraphic"/>
    </filter>
  </defs>
  <g id="그룹_128" data-name="그룹 128" transform="translate(-179.45 -12.45)">
    <g transform="matrix(1, 0, 0, 1, 179.45, 12.45)" filter="url(#탐책)">
      <text id="탐책-2" data-name="탐책" transform="translate(0.55 17.55)" stroke="#000" stroke-width="0.3" font-size="16" font-family="MalgunGothic, Malgun Gothic"><tspan x="0" y="0">탐책</tspan></text>
    </g>
    <g transform="matrix(1, 0, 0, 1, 179.45, 12.45)" filter="url(#패스_131)">
      <path id="패스_131-2" data-name="패스 131" d="M90.6-63.725s-.3,11.471,0,11.643,2.006-1.184,3.8-1.4a4.674,4.674,0,0,1,3.364,1.4,5.338,5.338,0,0,1,3.65-1.4c1.911.216,3.676,1.63,4,1.4s0-11.643,0-11.643a7.437,7.437,0,0,0-4-.862,9.377,9.377,0,0,0-3.65,1.581,5.892,5.892,0,0,0-3.022-1.581A8.566,8.566,0,0,0,90.6-63.725Z" transform="translate(-59.45 71.22)" fill="#fff" stroke="#212171" stroke-width="1"/>
    </g>
    <g transform="matrix(1, 0, 0, 1, 179.45, 12.45)" filter="url(#타원_94)">
      <g id="타원_94-2" data-name="타원 94" transform="translate(40.55 8.55)" fill="none" stroke="#131313" stroke-width="1.2">
        <circle cx="4.5" cy="4.5" r="4.5" stroke="none"/>
        <circle cx="4.5" cy="4.5" r="3.9" fill="none"/>
      </g>
    </g>
    <circle id="타원_95" data-name="타원 95" cx="3.5" cy="3.5" r="3.5" transform="translate(221 22)" fill="#fff" opacity="0.6"/>
    <g transform="matrix(1, 0, 0, 1, 179.45, 12.45)" filter="url(#패스_130)">
      <path id="패스_130-2" data-name="패스 130" d="M106.211-48.128l2.4,2.678" transform="translate(-58.45 64.55)" fill="none" stroke="#131313" stroke-linecap="round" stroke-width="1.3"/>
    </g>
    <path id="패스_132" data-name="패스 132" d="M97.75-59.6v8.891" transform="translate(120 81.258)" fill="none" stroke="#ececec" stroke-linecap="round" stroke-width="0.5"/>
  </g>
</svg>
