<svg xmlns="http://www.w3.org/2000/svg" width="13.522" height="19.083" viewBox="0 0 13.522 19.083">
  <g id="그룹_132" data-name="그룹 132" transform="translate(2696.966 99)">
    <g id="패스_770" data-name="패스 770" transform="translate(-2696.942 -99)" fill="#ff0e0e">
      <path d="M 6.696451663970947 18.55718803405762 C 6.234264373779297 18.29281044006348 4.760940074920654 16.78833770751953 3.270270109176636 14.52498054504395 C 2.226099967956543 12.93957042694092 0.4747000932693481 9.902960777282715 0.4767900705337524 7.378540992736816 C 0.4785500764846802 5.249470710754395 1.113830089569092 3.475980997085571 2.313940048217773 2.249810934066772 C 3.418339967727661 1.12143087387085 4.9864501953125 0.5000008940696716 6.729410171508789 0.5000008940696716 C 8.475000381469727 0.5000008940696716 10.04738998413086 1.121700882911682 11.15694046020508 2.250560998916626 C 12.36361980438232 3.47826099395752 13.00051021575928 5.251200675964355 12.99874973297119 7.377720832824707 C 12.99666023254395 9.904500961303711 11.21345043182373 12.94058132171631 10.15068054199219 14.52545070648193 C 8.648002624511719 16.76635360717773 7.163573265075684 18.27959251403809 6.696451663970947 18.55718803405762 Z" stroke="none"/>
      <path d="M 6.729410171508789 1 C 5.098739624023438 1 3.695460319519043 1.553110122680664 2.671270370483398 2.599550247192383 C 1.564379692077637 3.730470657348633 0.9784402847290039 5.383160591125488 0.9767904281616211 7.378960609436035 C 0.9753599166870117 9.110691070556641 1.900110244750977 11.49261093139648 3.580690383911133 14.08596038818359 C 4.815522193908691 15.9914608001709 6.07966136932373 17.40266227722168 6.691490173339844 17.92971229553223 C 7.275169849395752 17.42125511169434 8.524942398071289 16.08058738708496 9.83784008026123 14.09308052062988 C 11.55232048034668 11.49764060974121 12.49730968475342 9.112601280212402 12.49874973297119 7.377301216125488 C 12.50040054321289 5.384780883789063 11.91310024261475 3.733180999755859 10.80034065246582 2.601051330566406 C 9.785560607910156 1.568601608276367 8.339809417724609 1 6.729410171508789 1 M 6.729410171508789 0 C 10.45732975006104 0 13.50269031524658 2.607490539550781 13.49874973297119 7.378130912780762 C 13.49479961395264 12.14878082275391 7.594470024108887 19.02411079406738 6.713630199432373 19.08259010314941 C 6.70997428894043 19.08283424377441 6.706212043762207 19.08295440673828 6.702385425567627 19.08295440673828 C 5.784218788146973 19.08295440673828 -0.02713394165039063 12.12898063659668 -0.02320957183837891 7.378130912780762 C -0.01925945281982422 2.607490539550781 3.001480102539063 0 6.729410171508789 0 Z" stroke="none" fill="#951515"/>
    </g>
    <g id="타원_136" data-name="타원 136" transform="translate(-2694.552 -96.788)" fill="#fff" stroke="#951515" stroke-width="1">
      <ellipse cx="4.424" cy="4.609" rx="4.424" ry="4.609" stroke="none"/>
      <ellipse cx="4.424" cy="4.609" rx="3.924" ry="4.109" fill="none"/>
    </g>
  </g>
</svg>
