<svg xmlns="http://www.w3.org/2000/svg" width="32.3" height="15.838" viewBox="0 0 32.3 15.838">
  <g id="그룹_131" data-name="그룹 131" transform="translate(1604.171 389.838)">
    <g id="패스_142" data-name="패스 142" transform="translate(-1567.761 -388.838)" fill="#fff" stroke-linecap="round" stroke-linejoin="round">
      <path d="M -4.440759658813477 14.33750247955322 L -5.109689712524414 14.33750247955322 L -35.40966033935547 14.33750247955322 L -36.09790802001953 14.33750247955322 L -35.88518142700195 13.68296241760254 L -31.38796043395996 -0.1545373350381851 L -31.27568054199219 -0.4999973177909851 L -30.91243934631348 -0.4999973177909851 L -9.194439888000488 -0.4999973177909851 L -8.820710182189941 -0.4999973177909851 L -8.714900016784668 -0.1415573358535767 L -4.630149841308594 13.69594287872314 L -4.440759658813477 14.33750247955322 Z" stroke="none"/>
      <path d="M -30.91243934631348 2.86102294921875e-06 L -35.40966033935547 13.83750247955322 L -5.109699249267578 13.83750247955322 L -9.194438934326172 2.86102294921875e-06 L -30.91243934631348 2.86102294921875e-06 M -30.91243934631348 -0.9999971389770508 L -9.194438934326172 -0.9999971389770508 C -8.751199722290039 -0.9999971389770508 -8.36083984375 -0.7082176208496094 -8.2353515625 -0.2831172943115234 L -4.150608062744141 13.55438232421875 C -4.06134033203125 13.85681247711182 -4.119937896728516 14.18363285064697 -4.308731079101563 14.43620300292969 C -4.497509002685547 14.68877220153809 -4.794368743896484 14.83750247955322 -5.109699249267578 14.83750247955322 L -35.40966033935547 14.83750247955322 C -35.72977828979492 14.83750247955322 -36.03054809570313 14.68424224853516 -36.21870040893555 14.42526245117188 C -36.4068489074707 14.16627311706543 -36.45964050292969 13.83286285400391 -36.36069107055664 13.52841281890869 L -31.86347007751465 -0.3090877532958984 C -31.72957992553711 -0.7210674285888672 -31.34564018249512 -0.9999971389770508 -30.91243934631348 -0.9999971389770508 Z" stroke="none" fill="#3c3b47"/>
    </g>
    <path id="패스_144" data-name="패스 144" d="M-2377.4,741.143l4.755,6.548,4.954-1.294,5.354-1.654,4.553-3.6Z" transform="translate(779.708 -1128.84)" fill="#3daf4c" stroke="#156b46" stroke-linejoin="round" stroke-width="1"/>
    <path id="패스_143" data-name="패스 143" d="M-1914.73,759.506c.094,0,4.132-2.978,4.132-2.978l3.073,9.3h-7.205Z" transform="translate(333.213 -1141.991)" fill="#3daf6b" stroke="#1d7753" stroke-linejoin="round" stroke-width="1"/>
    <path id="패스_146" data-name="패스 146" d="M-1978.279,758.805c.094,0,8.75-2.978,8.75-2.978v5.955h-11.12Z" transform="translate(385.885 -1137.766)" fill="#57af3d" stroke="#128721" stroke-linejoin="round" stroke-width="1"/>
    <path id="패스_147" data-name="패스 147" d="M-2084.092,762.873l-2.713,8.524h3.863l2.617-3.723Z" transform="translate(485.743 -1147.485)" fill="#3daf80" stroke="#1d7762" stroke-linejoin="round" stroke-width="1"/>
  </g>
</svg>
