<svg xmlns="http://www.w3.org/2000/svg" xmlns:xlink="http://www.w3.org/1999/xlink" width="458.346" height="635.997" viewBox="0 0 458.346 635.997">
  <defs>
    <filter id="경상북도" x="224.419" y="195.298" width="198.858" height="215.265" filterUnits="userSpaceOnUse">
      <feOffset dy="3" input="SourceAlpha"/>
      <feGaussianBlur stdDeviation="3" result="blur"/>
      <feFlood flood-opacity="0.161"/>
      <feComposite operator="in" in2="blur"/>
      <feComposite in="SourceGraphic"/>
    </filter>
  </defs>
  <g id="그룹_127" data-name="그룹 127" transform="translate(5289.837 -2755.613)">
    <path id="강원도" d="M-5611.086,2786.669c4.361-2.811,10.633.5,19.888.839,2.477.091,2.2-1.684,9.638-2.51,1.859-.207,4.346,3.993,8.545,4.957s5.746-1.531,8.252-1.1c5.887,1.007,10.989-.754,18.449,0,3.52.356,4.631,3.774,6.638,3.608,2.256-.376,4.016-3.852,7.956-3.608,3.579.221,6.577,3.806,11.722,4.11,5.936.352,13.9-2.719,16.09-4.11,23.406-14.869,11.051-28.457,19-32.237s9.981,13.678,17.421,33.088c2.167,5.651,5.539,10.889,8.147,17.547,2.206,5.631,2.449,12.538,5.267,18.5,3.645,7.713,8.432,14.729,13.153,22.538,2.527,4.18,4.758,9.229,7.625,13.556a226.234,226.234,0,0,0,13.9,18.352c1.04,1.281,2.94,3.916,3.76,4.917,3.471,4.242-.034,5.11,1.735,9.159.794,1.818,3.389,3.436,3.76,4.628.8,2.577.317,6.488,1.446,9.063,1.742,3.973,4.811,7.163,6.9,11.154,4.36,8.341,10.108,16.5,12.014,20.914,1.486,3.439.425,7,.445,9.938a34.541,34.541,0,0,0,.52,6.133,22.422,22.422,0,0,0-8.618,4.937c-1.9,1.777-1.858,6.464-5.264,7.269-2.62.62-6.64-5.515-10.653-7.269-2.343-1.026-4.634,2.113-7.035,2.482-2.677.411-7.616-4.094-10.8-4.024-2.79.062-3.832,4.69-6.808,4.913-2.071.155-3.6-7.3-5.9-7.243-3.283.084-7.21,7.554-10.178,7.2-4.53-.538-11.659-6.446-20.854-10.315-2.3-.967-5.874,1.766-8.529.371-2.364-1.242-4.517-9.235-7.787-10.012-3.063-.727-7.261,5.749-10.086,3.931-1.99-1.281-.538-2.929,1.187-5.191s10.087-1.038,5.711-3.856c-1.205-.776-4.713-.07-7.342-1.113-1.7-.676-2.427-3.154-4.6-3.337-1.621-.137-2.722.959-4.227,1.113-1.4.136-3.154-.515-5.637.371-4.208,1.5-4.385,5.624-6.969,4.523-1.957-.834-1.954-5.41-4.153-8.232s-2.936-2.592-4.646-3.057c-8.993-2.449-1.832,10.509-5.785,13.208-2.119,1.447-3.86-.133-7.713-1.157-2.8-.743-3.883.2-8.555-.762s1.039-8.158,2.67-20.691c.961-3.767,4.009-6.329,4.969-12.014s-3.559-5.7-1.78-10.754c.89-2.3,4.938-1.314,7.12-3.189a3.275,3.275,0,0,0,1.483-3.412c-1.483-7.639-14.833-5.414-16.538-5.933-.658-.2-1.252-2.743-2.374-4.45a14.484,14.484,0,0,0-5.117-4.6c-2.818-1.483-5.1,2.546-8.292.818-1.4-.758-2.779-12.954,1.053-22.555,1.853-4.642,11.058-7.662,10.991-9.159-.585-13.024-7.912-13.353-15.33-17.933-3.089-1.907-1.611-12.846-4.82-14.655-4.77-2.689-5.23,6.847-9.738,4.049-2.874-1.784,2.025-12.533-4.146-14.076s-2.35,6.17-6.281,3.871-3.092-7.573-4.228-8.9c-2.465-2.871-2.93-.247-4.6-1.632-.7-.583-.868-2.586-1.335-3.856C-5611.213,2789.469-5611.672,2787.047-5611.086,2786.669Z" transform="translate(499)" fill="#6e57fe" stroke="#fff" stroke-width="1"/>
    <path id="경기도" d="M-5612.71,2787.508a64.348,64.348,0,0,1-8.7,4.583c-1.666.715-4.112.452-5.891,1.5-1.959,1.16.3,3.931-2.381,4.763-2.048.635-4.23-3.353-10.152-2.131a25.778,25.778,0,0,0-13.536,7.019c-2.257,2.4-1.311,4.188-.5,6.518.407,1.219.042,3.178,2.067,4.011,3.33,1.368,10.528.134,10.7,3.983.185,4.071-5.221,2.484-6.744,6.571s1.71,8.417.652,9.776a11.927,11.927,0,0,1-2.118,2.281c-2.676,2.01-1.013-8.884-2.493-10.591s-2.489,3.015-5.491,3.748-4.8-1.844-6.518-.816c-1.434.86-.641,3.591.815,5.378,1.171,1.441,3.113,2.015,3.91,4.888.442,1.583-2.883,3.061-2.933,5.866-.164,9.361,1.659,19.325,0,19.878-3.421,1.141-.118-7.2-4.073-11.243-2.775-2.842-7.047-3.462-9.939-1.14s-2.185,6.584-1.629,10.428c.573,3.966.789,9.426,2.331,14.989.5,1.787,2.742,3.508,3.046,5.588.335,2.285-.861,4.666-1.135,7.138-.213,1.916.5,3.916,1.135,5.863a15.758,15.758,0,0,0,6.192,7.808,9.534,9.534,0,0,0-1.068,5.7c.57,2.77,3.349,5.377,3.349,5.377s-16.13-1.629-21.032,5.377c-1.765,1.481-.791,4.783,2.621,6.191,1.354.558,4.437-1.251,6.191,0s2.385,5.045,3.748,6.844c7.4,9.776,13.912-1.8,14.175,0,1.285,8.779-4.268,5.878-3.91,10.754.517,7.075,5.586,16.345,9.613,19.063,2.537,1.713,12.6,1.421,21.507,0,4.692-.749,7.625-3.007,12.383-2.607,7.667.645,13.648,8.616,13.648,8.616s4.754-3.885,10.355-8.682a59.737,59.737,0,0,1,10.213-7.266c9.043-4.766,16.131-2.444,16.131-2.444,1.372-1.6-.24-7.225,1.3-9.287,1.7-2.274,5.316,1.025,7.5-1.3,3.656-3.907,5.764-13.64,6.683-20.531.376-2.825,5.954-10.419,5.214-14.012-.313-1.524-3.105-6.808-1.792-9.125,2.256-3.986,11.405-1.629,7.984-7.169s-14.786-2.085-16.126-4.116c-1.546-2.344-2.452-7.024-6.522-8.593-1.724-.662-7.295,2.113-8.147.815-4.648-7.078-2.06-16.728-.492-23s11.961-8.432,11.569-11.079a15.238,15.238,0,0,0-1.765-6.275c-2.009-3.412-6.626-6.056-9.8-7.647-2.806-1.4-4.173-1.621-5.589-5.294s.1-6.961-2.255-10.393-5.065,6.941-10.055,3.576c-2.2-1.634-1.295-5.844-1.334-9.4-.025-2.429-.621-4.709-2.6-5.2-4.334-1.076-.8,6.877-5.989,4.5s-3.6-7.716-5.163-9.573-2.15.715-4.2-1.524S-5612.71,2787.508-5612.71,2787.508Z" transform="translate(499)" fill="#6e57fe" stroke="#fff" stroke-width="1"/>
    <path id="서울" d="M-5653.108,2877.064c-2.005,3.635,2.35,3.415,3.133,7.144s-.5,4.731.752,6.893,2.757,1.253,4.261,1.755,2.35,5.013,5.389,5.891,3.885-2.381,6.768-2.381,4.011,6.517,10.9,1.379c1.083-.807,3.074-.457,4.011-1.379,3.664-3.593.752-5.389,1.755-7.019s5.756-4.573,5.515-6.267c-.626-4.387-6.392,2.131-8.773,0s6.016-5.765-1.128-14.539-9.4,2.757-11.406,3.259-2.475-3.322-5.139-1.88-3.635,7.771-5.64,8.773S-5651.1,2873.43-5653.108,2877.064Z" transform="translate(499)" fill="#6e57fe" stroke="#fff" stroke-width="1"/>
    <g id="인천" transform="translate(499)">
      <path id="패스_713" data-name="패스 713" d="M-5675.75,2875.186c.121-3.447,2.314-.386,3.471-.964s3.181-5.688,6.941-5.592,2.507,3.471,4.339,4.628,4.266-.265,5.688,2.989a12.317,12.317,0,0,1,0,10.027c-1.422,3.133-5.688.964-5.688.964s5.5,4.049,5.206,6.267-4.242,10.316-9.545,10.412-9.255-10.895-7.423-15.908S-5675.871,2878.633-5675.75,2875.186Z" fill="#6e57fe" stroke="#fff" stroke-width="1"/>
      <path id="패스_714" data-name="패스 714" d="M-5695.586,2861.57c.223-1.038-.783-19.544,7.227-19.6s7.12,8.771,8.084,15.89.074,15.648-6.6,16.464a6.96,6.96,0,0,1-7.17-3.971c-1.71-3.393-1.54-8.785-1.54-8.785s-.464-.688-.742,0c-.432,1.094-1.458,5.048-3.007,4.3-1.1-.528-2.159-1.8-3.56-3.337a27.1,27.1,0,0,1-3.263-4c-2.043-3.652,2.35-7.986,2.35-7.986s-9.225.39-9.1-1.8c.061-1.062,1.163-2.347,2.521-4.079,1.043-1.341,2.4-3.1,4.228-3.263,2.165-.192,3.8.79,5.488,2.225.687.571,1.9,1.417,1.937,2.225.082,2.076-2.256,3.769-2.256,3.769l-2.423.926a5.2,5.2,0,0,1,3.511,1.931c.64.993.423,3.372,1.168,4.5C-5697.135,2859.385-5695.809,2862.608-5695.586,2861.57Z" fill="#6e57fe" stroke="#fff" stroke-width="1"/>
      <path id="패스_715" data-name="패스 715" d="M-5693.971,2895.615c-3.258,5.139-6.326,7.189-2.247,10.3s5.933-4.3,5.636-5.636-1.384-4.667-1.384-4.667,1.687,1.033,10.027-3.936,6.264-9.419,3.52-10.754c-1.3-.631-3.492,1.249-6.823,2-3.076.693-7.338.384-9.419,2-3.948,3.071-1.928,6.6-1.557,7.639A14.431,14.431,0,0,0-5693.971,2895.615Z" fill="#6e57fe" stroke="#fff" stroke-width="1"/>
      <g id="패스_717" data-name="패스 717" transform="translate(-5721 2859)" fill="#6e57fe">
        <path d="M 3.500002384185791 6.499997615814209 C 2.674972295761108 6.499997615814209 1.824372291564941 6.171187400817871 1.166312217712402 5.597877502441406 C 0.4951322674751282 5.01312780380249 0.1254922598600388 4.268087387084961 0.1254922598600388 3.499997615814209 C 0.1254922598600388 2.766197681427002 0.4593722522258759 2.168487548828125 1.117852210998535 1.723447561264038 C 1.734062314033508 1.30697762966156 2.602332353591919 1.068117618560791 3.500002384185791 1.068117618560791 C 5.165602207183838 1.068117618560791 6.410152435302734 2.889267683029175 6.410152435302734 4.517577648162842 C 6.410152435302734 5.254257678985596 6.173812389373779 5.743987560272217 5.666372299194336 6.058777809143066 C 5.194422245025635 6.351547718048096 4.46555233001709 6.499997615814209 3.500002384185791 6.499997615814209 Z" stroke="none"/>
        <path d="M 3.500002384185791 1.568117618560791 C 2.699632167816162 1.568117618560791 1.933422088623047 1.77572774887085 1.39783239364624 2.137707710266113 C 0.8781223297119141 2.48894739151001 0.6254920959472656 2.934557437896729 0.6254920959472656 3.499997615814209 C 0.6254920959472656 4.78504753112793 2.022452354431152 5.999997615814209 3.500002384185791 5.999997615814209 C 4.371002197265625 5.999997615814209 5.011192321777344 5.87681770324707 5.402791976928711 5.63389778137207 C 5.653682231903076 5.478257656097412 5.910152435302734 5.223917961120605 5.910152435302734 4.517577648162842 C 5.910152435302734 3.800137519836426 5.628372192382813 3.027837753295898 5.15638256072998 2.451687812805176 C 4.886052131652832 2.121697425842285 4.311402320861816 1.568117618560791 3.500002384185791 1.568117618560791 M 3.500002384185791 0.568117618560791 C 5.432991981506348 0.568117618560791 6.910152435302734 2.584577560424805 6.910152435302734 4.517577648162842 C 6.910152435302734 6.450577735900879 5.432991981506348 6.999997615814209 3.500002384185791 6.999997615814209 C 1.567002296447754 6.999997615814209 -0.3745079040527344 5.432997703552246 -0.3745079040527344 3.499997615814209 C -0.3745079040527344 1.567007541656494 1.567002296447754 0.568117618560791 3.500002384185791 0.568117618560791 Z" stroke="none" fill="#fff"/>
      </g>
      <g id="패스_718" data-name="패스 718" transform="translate(-5701 2876)" fill="#6e57fe">
        <path d="M 3.999995470046997 7.500002384185791 C 3.105535507202148 7.500002384185791 1.574115514755249 6.662152290344238 0.1892654746770859 5.415122509002686 C -1.22193455696106 4.144372463226318 -2.133784532546997 2.771082401275635 -2.133784532546997 1.916502475738525 C -2.133784532546997 1.539002537727356 -1.970284581184387 1.30736255645752 -1.587084531784058 1.141952514648438 C -1.195054531097412 0.9727325439453125 -0.6048745512962341 0.8904725313186646 0.217165470123291 0.8904725313186646 C 0.8152554631233215 0.8904725313186646 1.451615452766418 0.9327725172042847 2.067025423049927 0.9736725091934204 C 2.635355472564697 1.011442542076111 3.172175407409668 1.047122478485107 3.641605377197266 1.047122478485107 C 4.659545421600342 1.047122478485107 5.649125576019287 1.339972496032715 6.356615543365479 1.850572466850281 C 6.878225326538086 2.227022409439087 7.499995231628418 2.905502557754517 7.499995231628418 4.000002384185791 C 7.499995231628418 5.929912567138672 5.929905414581299 7.500002384185791 3.999995470046997 7.500002384185791 Z" stroke="none"/>
        <path d="M 0.217165470123291 1.390472412109375 C -0.524904727935791 1.390472412109375 -1.065274715423584 1.461312294006348 -1.388924598693848 1.601012706756592 C -1.633784294128418 1.706702709197998 -1.633784294128418 1.781222343444824 -1.633784294128418 1.916502475738525 C -1.633784294128418 2.486832618713379 -0.9585943222045898 3.708662509918213 0.5238456726074219 5.043562412261963 C 1.950215578079224 6.327982425689697 3.352245569229126 7.000002384185791 3.999995470046997 7.000002384185791 C 5.654205322265625 7.000002384185791 6.999995231628418 5.654212474822998 6.999995231628418 4.000002861022949 C 6.999995231628418 2.389672756195068 5.310515403747559 1.547122478485107 3.641605377197266 1.547122478485107 C 3.155575513839722 1.547122478485107 2.610715389251709 1.510912418365479 2.033865451812744 1.472572326660156 C 1.426595449447632 1.432212352752686 0.7986555099487305 1.390472412109375 0.217165470123291 1.390472412109375 M 0.2171630859375 0.3904743194580078 C 1.387009620666504 0.3904743194580078 2.687376737594604 0.5471224784851074 3.641605377197266 0.5471224784851074 C 5.850735664367676 0.5471224784851074 7.999995231628418 1.790862560272217 7.999995231628418 4.000002861022949 C 7.999995231628418 6.209142684936523 6.20913553237915 8.000002861022949 3.999995470046997 8.000002861022949 C 1.790865421295166 8.000002861022949 -2.633784294128418 4.125642776489258 -2.633784294128418 1.916502475738525 C -2.633784294128418 0.6615910530090332 -1.321308612823486 0.3904743194580078 0.2171630859375 0.3904743194580078 Z" stroke="none" fill="#fff"/>
      </g>
      <g id="패스_716" data-name="패스 716" transform="translate(-5712.241 2863.557) rotate(48)" fill="#6e57fe">
        <path d="M 3.500003099441528 6.500002861022949 C 2.059113025665283 6.500002861022949 1.174353003501892 3.812922716140747 1.174353003501892 1.886462688446045 C 1.174353003501892 1.144812703132629 0.6854930520057678 0.2723027467727661 0.1679230332374573 -0.6514472365379333 C -0.3694769740104675 -1.610597252845764 -1.038296937942505 -2.804297208786011 -0.7379069924354553 -3.356467247009277 C -0.5579069852828979 -3.687327146530151 0.03005303256213665 -3.893597364425659 0.9624030590057373 -3.952967166900635 C 1.115453004837036 -3.962717294692993 1.266643047332764 -3.967657327651978 1.411773085594177 -3.967657327651978 C 2.904813051223755 -3.967657327651978 3.964303016662598 -3.458577156066895 4.650783061981201 -2.411337375640869 C 5.255942821502686 -1.488167285919189 5.466853141784668 -0.338087260723114 5.636322975158691 0.5860327482223511 C 5.693663120269775 0.898682713508606 5.743173122406006 1.168702721595764 5.802963256835938 1.403012752532959 C 6.050612926483154 2.373522758483887 5.560183048248291 4.579702854156494 4.634743213653564 5.770942687988281 C 4.376362800598145 6.103532791137695 3.96975302696228 6.500002861022949 3.500003099441528 6.500002861022949 Z" stroke="none"/>
        <path d="M 1.411772608757019 -3.46765661239624 C 1.277262568473816 -3.46765661239624 1.136752605438232 -3.463056564331055 0.9941725730895996 -3.453976631164551 C -0.1060774326324463 -3.383916854858398 -0.2972574234008789 -3.120156764984131 -0.2986974716186523 -3.117527008056641 C -0.2994275093078613 -3.116186618804932 -0.3666074275970459 -2.969986915588379 -0.1902675628662109 -2.482006549835205 C -0.01890754699707031 -2.007826805114746 0.2978224754333496 -1.442526817321777 0.6041226387023926 -0.8958468437194824 C 1.154502511024475 0.08646321296691895 1.674352526664734 1.014283180236816 1.674352526664734 1.886463165283203 C 1.674352526664734 3.7381432056427 2.51679253578186 6.000002861022949 3.50000262260437 6.000002861022949 C 3.7056725025177 6.000002861022949 3.97535252571106 5.804703235626221 4.239892482757568 5.464193344116211 C 4.628212451934814 4.964353561401367 4.970112800598145 4.202943325042725 5.177932739257813 3.375223159790039 C 5.40206241607666 2.482553243637085 5.39373254776001 1.821493148803711 5.318492889404297 1.526633262634277 C 5.254462242126465 1.275733232498169 5.201062202453613 0.9845231771469116 5.144522666931152 0.676213264465332 C 4.983172416687012 -0.2036068439483643 4.78237247467041 -1.298586845397949 4.232622623443604 -2.137226581573486 C 3.637622594833374 -3.044906616210938 2.741272449493408 -3.46765661239624 1.411772608757019 -3.46765661239624 M 1.411771774291992 -4.467655658721924 C 5.827352046966553 -4.467655658721924 5.884944915771484 -0.2980096340179443 6.287442207336426 1.279393196105957 C 6.704062461853027 2.912103176116943 5.432992458343506 7.000003337860107 3.50000262260437 7.000003337860107 C 1.567002534866333 7.000003337860107 0.6743526458740234 3.819453239440918 0.6743526458740234 1.886463165283203 C 0.6743526458740234 -0.04653668403625488 -3.96205735206604 -4.140396595001221 0.9306225776672363 -4.451956748962402 C 1.096359372138977 -4.462510585784912 1.256951689720154 -4.467655658721924 1.411771774291992 -4.467655658721924 Z" stroke="none" fill="#fff"/>
      </g>
      <g id="패스_719" data-name="패스 719" transform="translate(-5694 2914)" fill="#6e57fe">
        <path d="M 1.150388360023499 7.99658203125 C 0.4871684014797211 7.99658203125 -0.1210115998983383 7.567212104797363 -0.4764916002750397 6.84801197052002 C -0.898991584777832 5.993232250213623 -0.9695816040039063 4.581632137298584 0.09937839955091476 3.183302164077759 C 1.165888428688049 1.788152098655701 2.291138410568237 0.6585821509361267 3.443868398666382 -0.1740578562021255 C 4.921118259429932 -1.241097807884216 6.404288291931152 -1.782127857208252 7.852178573608398 -1.782127857208252 C 8.287588119506836 -1.782127857208252 8.727067947387695 -1.732737898826599 9.158418655395508 -1.635327816009521 C 10.03818798065186 -1.436647891998291 10.57257843017578 -1.09241783618927 10.74673843383789 -0.6121878623962402 C 11.21760845184326 0.6861521601676941 9.398068428039551 3.06547212600708 8.069498062133789 4.80278205871582 L 7.993888378143311 4.901662349700928 C 7.143128395080566 6.014562129974365 5.995808601379395 6.847892284393311 4.583788394927979 7.378502368927002 C 3.152668476104736 7.916282176971436 1.818368434906006 7.99658203125 1.150388360023499 7.99658203125 Z" stroke="none"/>
        <path d="M 7.852178573608398 -1.282127857208252 C 6.511578559875488 -1.282127857208252 5.126908302307129 -0.7729477882385254 3.73663854598999 0.2312722206115723 C 2.623538017272949 1.035282135009766 1.533428192138672 2.130652189254761 0.4966087341308594 3.48696231842041 C -0.2931118011474609 4.520011901855469 -0.4893217086791992 5.693652153015137 -0.02826118469238281 6.626461982727051 C 0.2370185852050781 7.163172245025635 0.6886482238769531 7.49658203125 1.150388717651367 7.49658203125 C 2.142807960510254 7.49658203125 5.540628433227539 7.287551879882813 7.596648216247559 4.598001956939697 L 7.672298431396484 4.499072074890137 C 8.380758285522461 3.572662115097046 9.183738708496094 2.522642135620117 9.724198341369629 1.547032117843628 C 10.39398860931396 0.337982177734375 10.35784816741943 -0.2179479598999023 10.27669811248779 -0.4417176246643066 C 10.13680839538574 -0.8274478912353516 9.531457901000977 -1.038497924804688 9.048288345336914 -1.147607803344727 C 8.653018951416016 -1.236867904663086 8.250588417053223 -1.282127857208252 7.852178573608398 -1.282127857208252 M 7.852178573608398 -2.282132625579834 C 8.314944267272949 -2.282132625579834 8.787071228027344 -2.23178243637085 9.268558502197266 -2.123047828674316 C 13.34960842132568 -1.201417922973633 10.42065811157227 2.550412178039551 8.391108512878418 5.205322265625 C 6.361568450927734 7.860232353210449 3.150388240814209 8.49658203125 1.150388717651367 8.49658203125 C -0.8496112823486328 8.49658203125 -2.327391624450684 5.534542083740234 -0.2978515625 2.879642248153687 C 1.492240905761719 0.5379610061645508 4.392569541931152 -2.282132625579834 7.852178573608398 -2.282132625579834 Z" stroke="none" fill="#fff"/>
      </g>
      <g id="패스_720" data-name="패스 720" transform="translate(-5711 2914)" fill="#6e57fe">
        <path d="M 4.41871976852417 6.930806159973145 C 3.622449636459351 6.930806159973145 2.47888970375061 6.137316226959229 1.571579575538635 5.446025848388672 C -0.1249704137444496 4.153426170349121 -1.254880428314209 2.998795986175537 -1.254880428314209 1.565186023712158 C -1.254880428314209 0.9731560349464417 -1.114070415496826 -0.9584940075874329 0.6977496147155762 -0.9584940075874329 C 1.353329539299011 -0.9584940075874329 2.569459676742554 -0.3432339727878571 3.655159473419189 0.5376960039138794 C 4.758609771728516 1.433045983314514 5.499999523162842 2.422565937042236 5.499999523162842 2.999995946884155 C 5.499999523162842 3.184655904769897 5.517119407653809 3.415106058120728 5.536949634552002 3.681956052780151 C 5.60474967956543 4.594615936279297 5.7182297706604 6.12212610244751 5.101879596710205 6.667195796966553 C 4.898519515991211 6.8470458984375 4.681439399719238 6.930806159973145 4.41871976852417 6.930806159973145 Z" stroke="none"/>
        <path d="M 0.6977496147155762 -0.4584941864013672 C 0.2306294441223145 -0.4584941864013672 -0.1010303497314453 -0.3042840957641602 -0.3459901809692383 0.02680587768554688 C -0.6096706390380859 0.383185863494873 -0.754880428314209 0.9295258522033691 -0.754880428314209 1.565186023712158 C -0.754880428314209 2.63002610206604 -0.01764059066772461 3.606606006622314 1.874599695205688 5.04831600189209 C 2.370869636535645 5.426425933837891 3.689129590988159 6.430806159973145 4.41871976852417 6.430806159973145 C 4.559549808502197 6.430806159973145 4.658229827880859 6.39206600189209 4.770649433135986 6.292655944824219 C 4.83989953994751 6.231406211853027 5.007609367370605 6.01961612701416 5.069029808044434 5.377285957336426 C 5.121079444885254 4.833045959472656 5.075189590454102 4.215335845947266 5.03831958770752 3.718996047973633 C 5.017759799957275 3.442225933074951 4.999999523162842 3.203206062316895 4.999999523162842 2.999995946884155 C 4.999999523162842 2.698035955429077 4.485019683837891 1.854936122894287 3.340119600296021 0.9259657859802246 C 2.231869697570801 0.02672624588012695 1.151559591293335 -0.4584941864013672 0.6977496147155762 -0.4584941864013672 M 0.6977496147155762 -1.458494186401367 C 2.354609489440918 -1.458494186401367 5.999999523162842 1.343145847320557 5.999999523162842 2.999995946884155 C 5.999999523162842 3.848305940628052 6.430539608001709 6.159666061401367 5.433109760284424 7.041746139526367 C 5.129932403564453 7.309858798980713 4.792276859283447 7.43080472946167 4.418715000152588 7.43080472946167 C 3.563274383544922 7.43080472946167 2.519345283508301 6.79672908782959 1.268559694290161 5.843746185302734 C -0.5284404754638672 4.474606037139893 -1.754880428314209 3.222036123275757 -1.754880428314209 1.565186023712158 C -1.754880428314209 -0.09166383743286133 -0.9591002464294434 -1.458494186401367 0.6977496147155762 -1.458494186401367 Z" stroke="none" fill="#fff"/>
      </g>
      <g id="패스_721" data-name="패스 721" transform="translate(-5730 2912)" fill="#6e57fe">
        <path d="M -1.226717591285706 16.07838249206543 C -2.131487607955933 16.07838249206543 -2.8187575340271 15.86690139770508 -3.161937475204468 15.48288154602051 C -3.387687683105469 15.23026180267334 -3.473427534103394 14.89441204071045 -3.42403769493103 14.45613193511963 C -3.209507465362549 12.55217170715332 -0.6434676051139832 10.91427135467529 0.7351124286651611 10.03433132171631 C 1.626502394676208 9.465352058410645 1.960042476654053 9.252461433410645 1.964292407035828 8.857622146606445 C 1.966312408447266 8.670621871948242 1.873152375221252 8.495841979980469 1.715092420578003 8.390091896057129 C 0.3162024319171906 7.468151569366455 -1.167477607727051 5.606241703033447 -1.167477607727051 3.967771768569946 C -1.167477607727051 2.715631723403931 -0.70381760597229 1.319971799850464 0.07282242178916931 0.2343917638063431 C 0.8658024072647095 -0.8740482330322266 1.883062362670898 -1.50976824760437 2.863772392272949 -1.50976824760437 C 3.797192335128784 -1.50976824760437 5.150742530822754 -0.3413682281970978 6.396202564239502 1.539471745491028 C 7.593802452087402 3.348031759262085 8.398442268371582 5.384791851043701 8.398442268371582 6.607661724090576 C 8.398442268371582 8.139071464538574 6.95455265045166 8.965031623840332 5.542122364044189 9.57103157043457 C 5.36779260635376 9.645821571350098 5.16190242767334 9.683752059936523 4.930152416229248 9.683761596679688 C 4.227002620697021 9.683801651000977 3.438152313232422 9.347561836242676 2.900202512741089 9.065482139587402 L 2.386132478713989 9.921271324157715 C 2.919982433319092 10.28565216064453 3.835852384567261 11.03339195251465 3.971752405166626 11.94732189178467 C 4.091132640838623 12.7120418548584 3.344042539596558 14.27471160888672 2.544822454452515 14.93672180175781 C 1.75906240940094 15.58758163452148 0.1376524269580841 16.07838249206543 -1.226717591285706 16.07838249206543 Z" stroke="none"/>
        <path d="M 2.863772392272949 -1.009767532348633 C 2.04644250869751 -1.009767532348633 1.177392482757568 -0.4502487182617188 0.4794726371765137 0.5253114700317383 C -0.2387075424194336 1.529191970825195 -0.6674776077270508 2.816091537475586 -0.6674776077270508 3.967771530151367 C -0.6674776077270508 5.378211975097656 0.6823523044586182 7.110631942749023 1.987332344055176 7.970671653747559 L 1.990242481231689 7.972591876983643 L 1.993132352828979 7.974521636962891 C 2.11300802230835 8.054730415344238 2.213144063949585 8.156215667724609 2.289832830429077 8.271994590759277 L 2.353272438049316 8.163251876831055 C 2.392250776290894 8.18192195892334 2.735603809356689 8.348902702331543 3.180599689483643 8.647714614868164 C 3.852121353149414 8.993684768676758 4.471834182739258 9.183761596679688 4.930182456970215 9.183761596679688 C 5.093712329864502 9.183761596679688 5.233272552490234 9.159461975097656 5.344972610473633 9.111532211303711 C 7.134782314300537 8.343631744384766 7.898432731628418 7.594811916351318 7.898432731628418 6.607662200927734 C 7.898432731628418 5.492531776428223 7.109262466430664 3.521931648254395 5.979312419891357 1.815522193908691 C 4.693902492523193 -0.1256380081176758 3.463252544403076 -1.009767532348633 2.863772392272949 -1.009767532348633 M 1.613954067230225 10.05758094787598 C 1.438046932220459 10.1788158416748 1.234753847122192 10.30858039855957 1.004122495651245 10.45579147338867 C -0.3041577339172363 11.29086112976074 -2.739367485046387 12.84525203704834 -2.927187442779541 14.51211166381836 C -2.970517635345459 14.89663219451904 -2.869137763977051 15.06015205383301 -2.789107799530029 15.14970207214355 C -2.549227714538574 15.41812133789063 -1.965157508850098 15.57838153839111 -1.226717472076416 15.57838153839111 C 0.1585526466369629 15.57838153839111 1.616572380065918 15.05635166168213 2.22587251663208 14.55166149139404 C 2.915802478790283 13.98018169403076 3.561282396316528 12.55963134765625 3.478282451629639 12.02804183959961 L 3.477722406387329 12.02445220947266 L 3.477192401885986 12.02086162567139 C 3.399853944778442 11.50076293945313 2.916696071624756 10.89918327331543 2.148956537246704 10.36503791809082 C 1.931942939758301 10.24946308135986 1.74972677230835 10.14176750183105 1.613954067230225 10.05758094787598 M 2.863772392272949 -2.009767532348633 C 5.349052429199219 -2.009767532348633 8.898431777954102 3.84624195098877 8.898431777954102 6.607662200927734 C 8.898431777954102 8.432951927185059 7.247922420501709 9.383241653442383 5.739262580871582 10.03052139282227 C 5.487142086029053 10.13868999481201 5.21250581741333 10.183762550354 4.930185317993164 10.183762550354 C 4.128592491149902 10.183762550354 3.263862371444702 9.820743560791016 2.668006420135498 9.508296012878418 C 2.247848272323608 9.221514701843262 1.921382427215576 9.065181732177734 1.921382427215576 9.065181732177734 C 1.921382427215576 9.065181732177734 2.217933654785156 9.272292137145996 2.668006420135498 9.508296012878418 C 3.360663175582886 9.981071472167969 4.307883739471436 10.80832672119141 4.466312408447266 11.87378120422363 C 4.623472213745117 12.88038158416748 3.71810245513916 14.61412143707275 2.863772392272949 15.32178211212158 C 1.999625205993652 16.03756713867188 0.2712888717651367 16.57838439941406 -1.226720809936523 16.57838439941406 C -2.788602352142334 16.57838439941406 -4.100101470947266 15.9905252456665 -3.920897483825684 14.40014171600342 C -3.569828033447266 11.28442192077637 1.895402431488037 9.112321853637695 1.437052488327026 8.805651664733887 C -0.09253740310668945 7.797591686248779 -1.667477607727051 5.773752212524414 -1.667477607727051 3.967771530151367 C -1.667477607727051 1.206352233886719 0.3784923553466797 -2.009767532348633 2.863772392272949 -2.009767532348633 Z" stroke="none" fill="#fff"/>
      </g>
      <path id="패스_722" data-name="패스 722" d="M-5738.968,2937.327c-.061-.831,1.3-1.425,2.853-3.16,1.352-1.522,3-4.137,4.213-4.037,2.249.187,3.51,3.291.526,7.2S-5738.836,2939.127-5738.968,2937.327Z" fill="#6e57fe" stroke="#fff" stroke-width="1"/>
    </g>
    <path id="제주도" d="M-5787.331,3371.15c-3.911,7.984,4.888,16.945,9.125,19.389,2.953,1.7,7.062-1.733,7.062-1.733,1.8-.465,6.848-.5,10.7-.548,12.709-.163,5.171,2.253,18.6,2.772,2.859.111,6.444-.92,10.6-2.738,5.158-2.252,12.454-1.395,18.262-4.908,9.314-5.634,15.526-16.845,9.738-26.9-7.281-12.647-24.011-10-41.554-6.267-4.169.886-10.854.046-14.829,1.216-11.537,3.393-17.808,11.3-22,15.479C-5784.125,3369.4-5785.747,3367.916-5787.331,3371.15Z" transform="translate(499)" fill="#6e57fe" stroke="#fff" stroke-width="1"/>
    <g id="충청남도" transform="translate(499)">
      <path id="패스_725" data-name="패스 725" d="M-5734.385,2980.437c.7-8.876,5.008-7.5,8.18-12.241,1.508-1.8.422-4.924,2.437-6.846,2.341-2.233,4.882-2.116,7.426-3.017,1.173-.419,3.239-1.878,4.125-2.034,5.279-.928-1.915,18.913,7.136,11.081,5.53-4.785.853-7.586-1.218-11.081-1.058-1.779-.236-4.421,2.088-6.5,5.976-5.337,12.241,5.685,12.241,5.685s-1.566-9.978,2.843-10.906,13.633,7.252,13.633,7.252a17.066,17.066,0,0,1,15.142,7.368c3.791,5.482,4.133,12.535,6.208,12.821,5.047.7,3.013-6.439,3.017-6.439a106.193,106.193,0,0,0,19.376-.58c5.324-.6,10.892-4.858,17.056-2.146,3.193,1.4,9.108,7.89,9.108,7.89l.812,4.757s1.658,2.383,4.235,5.511c3.061,3.713,7.207,8.437,6.033,10.616-.463.86-1.564,1.221-3.423.29-1.071-.538-2.811-2.34-4.351-2.263-.412.02.464,1.6-1.218,3.191s-3.715,1.45-5.511,3.191c-.724.7-.787,6.446-1.45,7.658-.955,1.742,1.087,4,1.45,6.44s-.24,2.943,0,3.307c1.915,2.9,5.976,4.293,4.757,10.153s-6.614,5.511-8.412,7.948.261,5.033-.812,7.136c-1.521,2.975-3.6,5-3.887,7.252-.378,2.939.991,4.484,1.915,7.252.7,2.106,1.383,4.881,2.785,6.323a7.879,7.879,0,0,0,2.843,1.566c2.828.74,2.081-6.744,4.525-6.266s3,7.63,4.38,8.18c2.425.968,5.708-3.947,9.485-4.815,4.118-.946,8.6,2.041,9.283,3.249,3.017,5.337-1.149,7-.691,10.9s1.966,1.072,2.431,4.013-.571,7.752-.571,7.752.15,5.2-1.86,5.2-4.516-5.654-6.18-5.2c-1.722.474-3.1,6.3-6.079,6.961s-4.163-4.549-5.818-4.325a14.546,14.546,0,0,1-5.561-.057c-5.354-1.659,1.734-4.919-1.735-11.556s-7.642-1.566-10.257-.964c-5.591,1.281-9.638,2.738-17.12.964-5.5-1.306-2.941-9.486-15.536-9.335-6.436.077-6.844,7.033-11.539,10.333s-3.845,1.811-5.958,3.243c-2.567,1.745-5.092,4.362-8.9,4.148-5.575-.313-9.956-10.753-13.952-14.254-4.755-4.162-8.421-1.831-9.88-4.148-2.564-4.073,4.28-7.429,4.978-13.651s-2.574-5.895-2.187-11.237c.128-1.756,3.7-2.743,3.771-4.751.09-2.648-3.87-5.367-4.525-8.22-.947-4.131,1.113-8.29,1.172-12.323.119-8.13.016-14.21-.525-14.58-1.83-1.25-2.1.357-5.489.223s-5.542-2.421-5.762-2.338,1.606.5,1.842,1.627c.418,2,1.445,6.8,2.242,9.774,1.08,4.027,1.612,4.337,2.263,6.9s1.887,6.567-1.856,8.644c-4.036,2.213-8.277-1.435-8.934-6.614-.606-4.755-.866-9.977.637-14.561a19.162,19.162,0,0,1,3.649-5.665c.4-.276-6.575,6.1-9.012,3.838s-.627-12.08-2.07-12.1-5.687,1.944-7.166.544a3.352,3.352,0,0,1,.211-4.721c1.267-1.222,3.875-1.536,2.76-2.831s-2.194,1.351-3.862,1.83-1.909.686-2.727.42C-5734.226,2984.57-5734.525,2982.218-5734.385,2980.437Z" fill="#6e57fe" stroke="#fff" stroke-width="1"/>
      <path id="패스_726" data-name="패스 726" d="M-5709.687,3029.968c1.544-3.021,6.007-2.3,6.9-.618s-.137,7.861-2.933,8.111S-5711.231,3032.989-5709.687,3029.968Z" fill="#6e57fe" stroke="#fff" stroke-width="1"/>
      <path id="패스_727" data-name="패스 727" d="M-5717.786,3035.219c-.7,1.459-1.3,6.694,2.437,5.836s3.416-4.248,2.815-5.836S-5717.083,3033.76-5717.786,3035.219Z" fill="#6e57fe" stroke="#fff" stroke-width="1"/>
    </g>
    <path id="대전" d="M-5603.564,3025.137a6.95,6.95,0,0,1-2.677,3.7c-2.142,1.562-4.759,2.3-5.623,3.481-1.473,2.008.637,2.721-.446,6.471s-4.061,4.583-3.887,8.528c.085,1.929.763,3.092,1.856,5.743.9,2.2,1.392,5.105,3.6,6.672,2.633,1.587,1.915-5.86,5.4-5.976s4.166,8.181,5.221,8.354c.623.1,2.324-1.572,4.815-3.249a29.528,29.528,0,0,1,3.713-1.914s-1.219-6.646,1.1-11.487,5.81-6.448,6.256-8.591-3.749-2.008-4.73-2.945.313-4.374-1.2-4.329-6.248,1.026-8.3.446S-5603.073,3024.2-5603.564,3025.137Z" transform="translate(499)" fill="#6e57fe" stroke="#fff" stroke-width="1"/>
    <path id="충청북도" d="M-5604.207,2970.642s12.133-11.888,20.981-16.373,15.491-1.961,15.491-1.961,1.22-.783,1.514-3.324c.265-2.3-.432-6.118.584-6.488.351-.128,2.134.192,5.046,0,.669-.044,3.467-2.472,3.467-2.472s.314,2.415,9.234,2.472c2.587.017,5.451,2.314,9.3,2.025a3.893,3.893,0,0,0,3.124-3.57c.555-3.736-1.6-10.779,1.647-10.436.823.087,3.372.39,4.69,1.754,3.03,3.123,2.454,8.3,5.311,9.684a3.281,3.281,0,0,0,3.629-.66c.956-.9,1.961-3.151,4.6-3.948,2-.6,3.531.108,5.493-.309,1.672-.361,3.18-1.554,4.6-.583a10.091,10.091,0,0,0,3.835,2.957,18.95,18.95,0,0,0,4.394.515,7.708,7.708,0,0,1,2.643.48c.239.143-3.917.375-5.158,1.087a6.289,6.289,0,0,0-2.535,2.588c-.74,1.147-1.427,3.136-.528,4.41,1.4,1.986,3.63,1.42,5.995,0,1.987-1.188,4.1-3.309,5.308-3.063,2.324.475,4.268,7.641,7.124,9.738a6.1,6.1,0,0,0,3.793.8c1.723-.122,3.952-1.226,4.775-1.026,1.473.357,12.808,5.891,12.272,6.917a1.835,1.835,0,0,1-1.773,1.288c-1.25.056-3.932-.872-5.36,0-2.463,1.5-1.24,4.417-5.813,6.569s-6.649,1.651-9.283,4.284c-.564.564.446,1.294,0,4.329s-1.562,2.722-1.383,5.043,2.461,4.91.625,7.542a10.18,10.18,0,0,0-4.679-.385c-2.692.382-4.177,1.972-7.426,1.1s-4.38-6.889-8.064-7.484-1.116,3.727-5.4,4.873c-1.93.517-3.832-1.668-6.382-1.856-2.424-.177-1.371,1.16-4.293,1.856s-4.757-2.2-6.962.754,3.423,8.3,1.334,10.269c-1.842,1.74-5.09-2.595-9.282-2.321s-.763,2-3.171,3.481-7.156-.7-6.459,2.321,5.8.58,6.459,6.73c.221,2.066-2.148,1.76-4.72,1.857-1.055.042-2.213-1.79-3.713-1.857-1.083-.048-1.278,1.518-2.611,1.857-1.74.432-4.333-.011-4.525.928-.58,2.843,6.746,6.434,8.021,11.827.307,1.3-.664,2.26-.885,6.679s1.054,5.433,0,11-9.048,7.695-5.881,12.3c.827,1.2,4.362-.972,6.766.3,1.873.994,2.848,2.9,5,4.374,3.712,2.544,8.673-5.279,8.145,5.355-.068,1.372.389,3.984-1.131,4.751-1.222.622-4.505-.652-5.128.679-.579,1.246,2.867,5.09,1.783,6.458a47.509,47.509,0,0,1-3.668,3.949c-1.479,1.469-2.937,3.825-5,5.581-1.486,1.266-3.574,1.7-6.568,2.286-1.361.266-2.631-2.223-4.583-1.973-1.809.233-4.344,3.173-6.382,3.191-2.885.026-4.514-3.153-7.252-4.351a12.5,12.5,0,0,0-6.381-.522s.159-4.018.2-8.979c.011-1.362-2.4-1.937-2.424-3.678-.041-2.881,2.225-6.847,1.885-8.6-.539-2.779-2.9-4.921-5.869-6.127a15.213,15.213,0,0,0-4.409-.87,14.992,14.992,0,0,1,.206-9.476c1.793-4.635,6.828-7.542,6.961-11.067-.044-2.588-5-2.99-5-2.99s.147-4.195-1.013-4.6-7.631.821-8.876.58-5.1-5.218-5.1-5.218a10.261,10.261,0,0,0-.625-5.667,17.161,17.161,0,0,0-4.314-5.132,7.972,7.972,0,0,0,0-3.617c-.455-2.051-1.551-3.788-1.579-4.5a26.336,26.336,0,0,1,.938-3.845l.437-3.88c.652-1.785,2.781-1.3,4.806-2.918a4.515,4.515,0,0,0,2-3.259,5.265,5.265,0,0,1,1.076.691c1.253.981,4.57,2.945,6.248,1.319,2.146-2.785-.088-6.415-3.191-10.211-1.83-2.236-5.591-6.253-6.18-7.724A20.008,20.008,0,0,1-5604.207,2970.642Z" transform="translate(499)" fill="#6e57fe" stroke="#fff" stroke-width="1"/>
    <g id="울릉도와_독도" data-name="울릉도와 독도" transform="translate(499)">
      <path id="패스_730" data-name="패스 730" d="M-5349.506,2912.032c-2.958-.522-2.376,2.219-4.119,3.017s-5.976-.522-6.5,3.191c-.249,1.767,1.687,3.828,4,5.686,2.027,1.638,4.586,2.922,7.412,1.226,2.087-1.252,2.647-3.482,2.625-6.042C-5346.1,2915.865-5346.548,2912.554-5349.506,2912.032Z" fill="#6e57fe" stroke="#fff" stroke-width="1"/>
      <path id="패스_731" data-name="패스 731" d="M-5340.63,2929.32c-1.131-1.915,2.48-4.685,4.7-3.771a9.439,9.439,0,0,1,3.887,3.481c.78,1.114,1.657,2.927.29,3.945-1.1.818-2.567.216-4.177-.348A9.7,9.7,0,0,1-5340.63,2929.32Z" fill="#6e57fe" stroke="#fff" stroke-width="1"/>
    </g>
    <path id="전라북도" d="M-5700.115,3087.672c-.488-2.908,2.252-3.424,5.98-3.57,4.366-.176,10.3.7,11.067.609,1.339-.163.893-2.305.893-2.305a4.554,4.554,0,0,0,2.1,1.7,9.767,9.767,0,0,0,5.026.609c3.261-.815,6.071-4.134,7.919-4.827,3.219-1.207,6.986-3.745,8.824-6.712,1.87-3.021,2.889-6.64,8.975-6.184,11.086.83,5.814,8.527,15.734,9.687a32.6,32.6,0,0,0,13.63-1.1,16.422,16.422,0,0,0,2.766-.746c1.936-.769,5.207-4.524,7.771.746s-1.559,8.362.355,10.683a6.118,6.118,0,0,0,4.7,1.915c1.173.06,2.865-.259,3.423-.232,1.218.058,2.611,4.873,5.859,4.351,1.156-.186,1.915.29,5.164-5.221.182-.308.639-1.741,1.21-1.762.616.173,3.608,4.93,5.4,5.185a3.063,3.063,0,0,0,2.6-1.173,5.992,5.992,0,0,0,.977-3.063,12.265,12.265,0,0,1,5.175,0c1.168.322,2.482,1.515,4.15,2.659a26.891,26.891,0,0,0,2.722,1.576,3.972,3.972,0,0,0,3.731,0c1.582-.7,3.909-3.409,5.883-2.911.561.141,2.237,2.2,2.237,2.2s-.648,3.3.3,3.675c1.944.765,3.761,1.859,4.329,3.179,1.819,4.231-9.2,10.785-9.2,10.785s-12.1,6.411-17.95,14.405-2.64,9.7-5.43,17.573c-1.421,4.01-4.275,5.746-4.3,8.447.071,1.985,2.662,2.574,3.556,4.751.759,1.854-.165,5.225,0,6.109.743,4,3.108,3.861,2.783,5.051-1.583,5.807-5.6,4.586-7.994,7.014s0,10.257-3.318,8.673-6.938-7.165-12.444-7.542-5.807,6.26-16.215,5.807c-5.856.734-9.183-3.959-14.858-4.6s-3.469,3.092-10.031,2.112-3.956-3.569-3.092-7.165c.294-1.228-2.046-3.239-2.112-5.2-.045-1.351,2.372-2.823,2.866-4.375.838-2.65.093-5.022-1.961-6.335-3.282-2.1-4.923,2.467-5.807,6.335-.728,3.183-.7,5.651-3.846,5.2-6.375-.9-4.073-14.556-15.386-13.575s-3.82,6.663-8.749,12.746c-2.283,2.821-5.892,4.5-9.05,6.335-2.058,1.2-4.65.749-7.466.452-2.923-.3-5.941-.826-6.712-2.338-3.846-7.542.226-8.749-.6-12.067-.518-2.071-3.378-3.417-4-6.034-.267-1.086.922-2.9,2.036-4,2.753-2.717,6.5-3.72,10.133-4.509,3.385-.736,6.56-1.191,7.288-3.259.39-1.106-.746-1.71-3.092-1.433-1.778.209-4.812,1.309-7.542.905-3.509-.516-6.768-3.9-6.26-7.089a12.546,12.546,0,0,1,4.073-6.788c2.921-2.515,7.5-4.167,10.936-6.788,3.073-2.342,2.869-4.524,5.732-6.031a6.414,6.414,0,0,1,5.719,0c2.949,1.072,6.514,4.774,6.071,1.653-.893-6.292-7.885-6.7-6.873-10.4.553-2.019,3.735-1.1,6.873-1.294,2.054-.123,4.351-2.7,2.633-3.213s-4.931.233-9.505,1.16c-3.054.619-7.167.451-8.167,0-2.276-1.026.893-4.6-2.142-5.891S-5699.854,3089.225-5700.115,3087.672Z" transform="translate(499)" fill="#6e57fe" stroke="#fff" stroke-width="1"/>
    <g id="전라남도" transform="translate(499)">
      <path id="패스_733" data-name="패스 733" d="M-5732.953,3180.423c-.6-4.735,6.971-6.957,10.08-12.213,4.021-6.8,4.563-18.671,8.75-18.258.63.062,1.457,1.532,2.625,3.056.616.794,1.613,1.52,1.919,2.812.229.965-.669,2.812-.8,3.883s-.852.841,0,4.329,1.754,4.878,4.256,5.831a39.867,39.867,0,0,0,4.6.905c2.776.438,5.514,1.207,9.486-1.292s4.851-2.662,7.5-5.132c7.044-6.572-2.588-13.165,9.684-13.165a6.614,6.614,0,0,1,4.954,1.651c1.94,1.96,2.971,6.011,4.418,8.077,3.336,4.75,6.65,4.507,7.944,3.213.488-.488,1.555-3.8,2.323-6.55,1.044-3.742,2.063-7.069,4.6-3.545a3.412,3.412,0,0,1,.6,3.545c-.612,1.441-2.856,3.417-3.017,5.279s2.224,2.927,2.112,5.128c-.053,1.039-2.074,4.148-.3,6.486s6.174,2.152,8.227,1.84,2.053-2.588,6.025-2.187c1.7.171,3.212.848,6.381,2.455a34.969,34.969,0,0,0,6.292,2.41,31.026,31.026,0,0,0,10.71-1.5c2.531-.9,4.127-3.891,7.014-4.45,2.112-.075,6.386,1.6,9.52,4.865a11.729,11.729,0,0,0,3.222,2.429,8.306,8.306,0,0,0,2.568.625s.359,12.371,1.536,15.8,6.352,6.321,11.06,13.726c3.389,5.33,4.835,11.6,4.446,14.066s-5.048,1.621-8.07,4.45c-2.3,2.153-1.207,5.355-5.581,7.467-4.9,1.961-11.562-6.079-11.17,0,.184,2.857,3.8,6.8,8.824,7.844s7.353-3.824,10.883,1.275c.707,1.02-1.83,5.849-1.863,10.883-.02,3.113,2.1,7.275,2.1,7.275s-8.627.934-9.34,5.221,5.859,9.062,5.859,9.062-5.976.528-5.859,4.978,8.33,7.833,8.33,7.833-4.977,7.628-2.111,9.74,5.355-2.96,5.958-5.2-3.545-3.771-3.545-3.771.045-5.77-.3-9.05a5.966,5.966,0,0,0-2.471-4.525s4.264,2.921,4.73-.763c.16-1.267-.973-4.98-1.11-6.113s1.164-3.947.858-5.7a3.2,3.2,0,0,0-1.23-1.709,10.159,10.159,0,0,1-3.248-.464c-2.031-.771-4.873-2.582-6.877-3.053-2.922-.688-4.353-.632-5.505.452-2.229,2.013.672,8.161-1.509,9.578-2.956,1.425-5.86,1.167-7.668-3.983-1.574-4.482,1.373-10.393,1.961-13.04.313-1.406-.216-3.629-1.961-6.275a8.353,8.353,0,0,0-7.847-4.118c-6.32.166-8.584,6.5-7.546,12.942,1.3,8.068,8.153,11.723,7.546,16.661s-9.523,1.961-9.976,3.092c-.4,1,1.307,8.191-2.64,12.444s-6.854,4.1-11.21,2.857-6.212-7.833-6.212-7.833,2.6,7.354-2.22,8.6a10.467,10.467,0,0,1-10.981-3.623c-.815-.981-1.039-2.9,1.373-3.762,1.336-.478,3.374.2,5.588,0a38.529,38.529,0,0,0,6.24-1.214s-15.67,2.634-13.2-4.571a18.676,18.676,0,0,1,3.432-6.863,13.8,13.8,0,0,1,6.863-3.726c2.027-.29,3.533,1.237,4.9,0,1.271-1.5-.4-7.354,1.328-9.118,1.128-1.151,3.073-1.156,4.827,0,1.062.7,1.456,3.458,1.81,2.854a5.386,5.386,0,0,0,.754-4.375c-.725-2.486-5.2-7.994-8.3-2.866a17.759,17.759,0,0,1-4.639,5.128c-2.9,2.338-5.694-2.036-16.705,4.45a12.532,12.532,0,0,0-4.857,4.608c-1.613,3.044-1.383,7.138-2.451,10.687-1.426,4.741-4.319,8.254-11.667,8.04-14.815-.432-7.947-16.85-9.757-17.3-.723-.059-1.855,1.666-2.414,4.224-.59,2.7-.664,6.775-2.489,9.955-1.941,3.381-8.9,4.148-8.9,4.148a23.981,23.981,0,0,1,7.092,5.336,22.42,22.42,0,0,1,3.887,7.774s.464-3.423,5.337-4.641c1.3-.325,5.859,1.392,5.859,1.392a9.362,9.362,0,0,1-.638-4.873c.435-2.367,2.824-4.516,7.542-.638,8.47,6.962-6.614,5.917-6.614,5.917s.592,5.816-2.553,6.382-8.934-3.249-8.934-3.249.545,2.915-2.08,3.771a7.471,7.471,0,0,1-7.725-1.508c-10.094-9.05-1.174-15.663-1.174-15.663a14.149,14.149,0,0,0-6.078,4.988c-2.756,4.079-3.259,13.562-9.108,8.412-1.07-.942-2.538-3.771-3.83-5.928-.9-1.488-1.645-2.264-1.96-4.223-.656-4.065,4.374-3.319,3.167-6.109-.278-.642-2.921-1.675-3.469-3.922-.687-2.824.926-6.765-1.131-8.829-1.877-1.884-10.145-2.716-10.145-2.716a3.794,3.794,0,0,1,3.207,2.193c.56,1.374.081,3.918,0,6.411-.07,2.275.126,4.539-.98,6.411-1.333,2.254-5.316,3.016-9.277,4.525-4.775,1.823-10.022,3.91-13.953,3.168-1.826-.345-2.969-1.561-4.072-3.168a9.333,9.333,0,0,1-1.282-7.089,14.118,14.118,0,0,1,3.243-5.807,21.554,21.554,0,0,1,7.843-5.807c1.3-.539,2.479-.035,4.148-.528,2.043-.6-.241-6.406,1.885-7.014,2.638-.754,9.238,6.707,9.238,6.707a30.487,30.487,0,0,1-4.939-8.894c-2.187-5.807-3.62-18.327,2.414-17.723,3.741.374,3.782,5.816,4.751,10.477.494,2.375,2.324,5.578,3.469,6.115.807.378,1.384-1.111.6-2.941-.506-1.191-2.214-2.884-3.156-4.6-.93-1.691-.967-3.32,0-3.771,1.494-.693,4.92-.656,8.436.754,3.648,1.461,5.936,4.055,6.863,3.771s.035-2.816-3.156-4.908c-3.367-2.208-8.522-2.263-12.143-5.2-3.469-4.3,2.178-13.5,2.178-13.5a9.152,9.152,0,0,1-4.29,1.131c-1.625,0-3.007-.64-5.128-1.131-2.213-.509-5-1.031-5.355-2.112-.449-1.364,2.842-2.937,5.355-4.751,2.122-1.539,3.538-3.278,5.729-2.921,2.255.367,1.951,2.475,2.341,5.259a23.937,23.937,0,0,0,1.349,4.525s3.815-7.2,2.271-9.784-7.549,1.594-8.447-3.339c-.464-2.551,3.853-3.262,5.732-6.788,1.479-2.78.447-8.423,2.172-9.606,3.57-2.45,3.971,5.444,5.489,4.953s5.539-3.929,3.8-8.392S-5732.355,3185.158-5732.953,3180.423Z" fill="#6e57fe" stroke="#fff" stroke-width="1"/>
      <path id="패스_734" data-name="패스 734" d="M-5594.173,3273.924c-3.124.24-1.931,4.068-.961,5.424s3.879,2.2,4.84,0S-5591.049,3273.684-5594.173,3273.924Z" fill="#6e57fe" stroke="#fff" stroke-width="1"/>
      <path id="패스_735" data-name="패스 735" d="M-5594.36,3273.393c-2.092.147-2.263,3.024-1.614,3.856s3.087,1.349,3.73,0S-5592.269,3273.245-5594.36,3273.393Z" transform="translate(-12 -4)" fill="#6e57fe" stroke="#fff" stroke-width="1"/>
      <path id="패스_736" data-name="패스 736" d="M-5613.1,3288.334a7.277,7.277,0,0,1-5.511-4.757c-1.334-4.119,2.03-7.31,3.771-6.208.7.44.49,2.6,1.219,4.931.281.891,1.627,1.747,1.8,2.959a6.333,6.333,0,0,1-.58,3.075,17.832,17.832,0,0,0,1.74,2.263c1.09,1.2,2.7,2.9,2.146,4.641-.631,1.973-3.125,1.895-5.511,0a5.719,5.719,0,0,1-2.379-3.191C-5617.511,3287-5613.1,3288.334-5613.1,3288.334Z" fill="#6e57fe" stroke="#fff" stroke-width="1"/>
      <path id="패스_737" data-name="패스 737" d="M-5660.9,3284.272c-1.465-.421-4.874,2.2-2.553,6.033s5.134,3.278,5.859,1.682c.345-.76-.247-1.932-1.044-3.829C-5659.256,3286.68-5660.136,3284.492-5660.9,3284.272Z" fill="#6e57fe" stroke="#fff" stroke-width="1"/>
      <path id="패스_738" data-name="패스 738" d="M-5668.125,3300.042s-1.776-5.027.976-5.027c1.1,0,1.816,1.381,3.882,2.231,2.4.979,6.069,1.923,5.8,5-.446,5.126-10.66-2.2-10.66-2.2s.812,3.516-.453,4.836c-.79.825-1.748,1.148-3.347.357a4.872,4.872,0,0,1-2.365-2.231c-.9-1.8.6-2.961,2.633-3.3A9.6,9.6,0,0,1-5668.125,3300.042Z" fill="#6e57fe" stroke="#fff" stroke-width="1"/>
      <path id="패스_739" data-name="패스 739" d="M-5683.66,3315.952c-3.62,2.64-1.357,7.316,0,8.673s5.43-1.169,5.43-3.243S-5680.04,3313.312-5683.66,3315.952Z" fill="#6e57fe" stroke="#fff" stroke-width="1"/>
      <path id="패스_740" data-name="패스 740" d="M-5716.289,3318.566s-2.1-1.19-2.632-2.616c-.645-1.7-.105-4.3,3.713-4.409a3.86,3.86,0,0,1,3.6,2.031c.827,1.479.406,2.451-.87,3.713s-3.945,1.16-3.945,1.16l3.191.464a8.9,8.9,0,0,1-1.1,4.235,6.035,6.035,0,0,1-5.164,2.321c-3.351-.218-6.146-1.091-6.382-3.655C-5726.347,3316.762-5716.289,3318.566-5716.289,3318.566Z" fill="#6e57fe" stroke="#fff" stroke-width="1"/>
      <path id="패스_741" data-name="패스 741" d="M-5710.905,3323.506c.4-2.641,2.271-2.3,2.271-2.3s-1.613-2.176-.5-3.8,3.708-3.257,4.945-2.7,1.48,2.735,0,4.92c-.792,1.171-4.443,1.584-4.443,1.584s3.12.55,3.538,2.192,1.954,3.222.792,4.119S-5711.3,3326.146-5710.905,3323.506Z" fill="#6e57fe" stroke="#fff" stroke-width="1"/>
      <path id="패스_742" data-name="패스 742" d="M-5772.7,3293.857s-3.258-.5-3.525-1.964.949-2.332,2.321-2.5,2.9.368,3.168,1.83-1.964,2.633-1.964,2.633a19,19,0,0,1,5.132.714c2.008.714,3.57,6.2-1.071,6.515a5.688,5.688,0,0,1-5.444-3.7C-5774.434,3296.025-5772.7,3293.857-5772.7,3293.857Z" fill="#6e57fe" stroke="#fff" stroke-width="1"/>
      <path id="패스_743" data-name="패스 743" d="M-5762.646,3236.4c-1.854,1.925-.775,3.257,2.832,5.728.775.531,1.322,2.442,2.962,3.484a10.934,10.934,0,0,0,3.2.965l-2.344,1.769a6.249,6.249,0,0,0-4.164,2.567,9.581,9.581,0,0,0-1.084,5.443,1.487,1.487,0,0,0-.856-1.222c-1.155-.632-4.092-1.283-4.621,0-.675,1.641.362,4.618-.571,6.846-1.177,2.809-2.335,4.608-2,6.332a1.529,1.529,0,0,0,1.625,1.638,7.846,7.846,0,0,0,6.749-4.775c1.269-3.255-.33-8.819-.33-8.819s.144-.984.8-.765c1.618.548,8,3.418,10.212,0,.433-.668,1.215-3.672-.342-5.477-1.016-1.177-5.42-1.54-5.42-1.54s6.085-3.343,4.45-7.359c-.631-1.556-4-4.514-7.2-5.608A4.1,4.1,0,0,0-5762.646,3236.4Z" fill="#6e57fe" stroke="#fff" stroke-width="1"/>
      <path id="패스_744" data-name="패스 744" d="M-5730.516,3187.982c-1.262-.617-5.262-1.213-7.562.193-2.129,1.3-2.54,4.723-3.411,5.149-1.613.79-4.771-2.815-7.071.412s3.585,7.893,3.585,7.893l-2.99-2.244a7.953,7.953,0,0,0-2.99-.7c-.774,0-1.584.7-2.212.7h-1s6.556-12.473,3.365-13.517-11.487,5.743-11.255,10.326,7.426,3.655,7.426,3.655h.87a7.522,7.522,0,0,0-1.049,3.889c.229,1.72,2.142,4.016,2.142,4.016s-2.192-1.323-3.481,0c-.546.529-.5,2.471.431,5.08s4.283,1.914,5.287.824-2.236-5.9-2.236-5.9a5.928,5.928,0,0,0,7.922,2.35c1.208-.558,0-7.316,0-7.316s3.389,4,6.672,2.733c1.3-.5,2.207-1.971,3.713-3.423a30.5,30.5,0,0,1,4.548-3.351S-5727.772,3189.323-5730.516,3187.982Z" fill="#6e57fe" stroke="#fff" stroke-width="1"/>
      <path id="패스_745" data-name="패스 745" d="M-5760.545,3224.877s-5.086,1.623-7.631.714c-2.708-.958-4.664-3.42,0-7.854,2.189-2.081,3.325-2.135,4.909-2.1,3.162.026,3.94,3.415,4.2,5.1s-1.479,4.139-1.479,4.139,7.854-3.168,7.453-.4-5.311,8.881-9.148,6.248S-5760.545,3224.877-5760.545,3224.877Z" fill="#6e57fe" stroke="#fff" stroke-width="1"/>
      <path id="패스_746" data-name="패스 746" d="M-5775.717,3239.068a1.207,1.207,0,0,0-1.33-.537c-1.238.367-4.234,2.026-5.973,1.236-2.37-1.077-1.429-4.677,1.373-7.14,1.174-1.032,3.8-1.186,5.93-1.648,2.242-.491,2.48-2.437,4.472-1.1s2.019,3.376,1.1,5.664c-.624,1.551-5.229,2.35-6.9,2.987-.358.14,1.553.537,1.553.537a11.921,11.921,0,0,1,2.633.268c1.3.279,2.965,1.106,3.124,2.588.268,2.5-.688,7.333-4.73,8.39-1.948.51-4.071-.11-6.139-.848-1.626-.569-3.147-1.341-3.679-3.213-1.026-3.615,3.915-2.321,6.114-4.329S-5775.717,3239.068-5775.717,3239.068Z" fill="#6e57fe" stroke="#fff" stroke-width="1"/>
      <path id="패스_747" data-name="패스 747" d="M-5770.941,3253.3c-2.9-.219-2.863,3.226-2.677,5.529s2.04,3.909,3.423,3.686,1.81-2,1.624-4.3S-5768.045,3253.516-5770.941,3253.3Z" fill="#6e57fe" stroke="#fff" stroke-width="1"/>
    </g>
    <path id="광주" d="M-5691.831,3188.46c-.946,1.4-3.59-1.121-4.235.669a7.2,7.2,0,0,0,1.972,7.162c2.294,2.23,4.555,1.083,6.02,1.76s4.208,8.138,11.6,8.214,3.335-3.152,6.5-2.733,3.564,4.111,7.707,1.753,7.705-8.055,8.3-12.444-4.676-4.073-5.933-5.114-2.438-6.953-7.642-8.236-6,4.437-9.8,4.03-3.622-4.259-6.531-4.4-2.472,1.815-5.105,3.829c-.681.517-2.262.231-2.843.928C-5693.919,3186.386-5690.885,3187.058-5691.831,3188.46Z" transform="translate(499)" fill="#6e57fe" stroke="#fff" stroke-width="1"/>
    <path id="대구" d="M-5503.452,3142.269c-.271-1.137-3.22-3.944-3-6.749.142-1.792,6.184,1.981,6.712-.452.457-2.106-2.129-10.057-.6-12.67,1.248-2.135,6.375.37,6.411-2.338.075-5.718-9.563-5.83-7.995-8.145.758-1.118,5.555-8.136,9.126-8.145,3.191-.01-1.056,8.07,3.469,7.391s5.505-13.349,18.779-14.631c3.478-.336,7.873.41,9.126,3.922.671,1.873-1.187,4.57-.98,7.467.11,1.488,1.968,3.982,1.583,6.109-.4,2.23-3.556,1.719-5.128,3.7-.973,1.226.886,4.016,0,6.26s-2.795,1.327-3.544,2.715c-1.033,1.915.926,6.586,0,7.617-3.283,3.657-7.016,2.253-9.534.063-1.629-1.412-2.344-3.792-3.665-3.759-3.469.075-3.017,6.26-6.109,7.919S-5502.075,3148.04-5503.452,3142.269Z" transform="translate(499)" fill="#6e57fe" stroke="#fff" stroke-width="1"/>
    <path id="부산" d="M-5461.1,3209.034s.249,1.107,1,5.4a8.034,8.034,0,0,1-2.025,6.934s-1.069,1.095,2.68,1.854,4.73-2.413,7.363-1.854c.789.168,1.473,6.049,4.686,6.807s2.9-2.736,4.775-1.74c2.975,1.579,4.724,2.747,6.471,1.9s-.936-5.74.286-6.676,2.42,4.286,5.266,2.633-1.141-2.86,1.152-5.059c1.963-1.88,7.094-3.3,9.352-6.656,2.775-4.122,2.263-11.972,3.394-14.084,2.067-3.4,7.178-3.177,7.01-6.045-.306-5.215.724-11.309-4.465-10.849-1.261.112-1.8,1.848-3.525,3.017-1.235.836-3.01.6-4.6,1.81-3.13,2.384-6.024,6.333-7.165,6.863-2.111.98-6.562-.226-8.447.905s-2.215,5.2-4.728,6.26-7.585-.3-9.461.377-1.514,4.589-3.712,6.463A8.537,8.537,0,0,1-5461.1,3209.034Z" transform="translate(499)" fill="#6e57fe" stroke="#fff" stroke-width="1"/>
    <path id="울산" d="M-5437.963,3162.215c.9.9,4.154-.115,6.938,1.735,2.262,1.659,3.167,7.165,5.923,8.749s4.666.4,7.577,2.791c1.217,1,1.811,4.116,2.866,4.735s2.841-.8,5.219,2-.662,16,4.292,10.186c.852-1,1.747-.214,2.706-3.949s-.282-10.125,1.131-11.992c2.455-3.243,5.43,4.525,9.895-6.171,2.664-6.571.965-13.664.965-13.664s-.089-4.256-.161-4.456c-.189-.529-1.485-1.489-1.915-2.322a7.278,7.278,0,0,0-3.3-3.377c-4.393-1.923-9.123,4.492-12.194,2.462-1.542-1.02-2.109-6.155-3.914-7.2-1.369-.792-3.233-.12-4.835-.872-2.431-1.145-3.456-3.377-5.378-3.375-1.467,0-2.354,1.34-3.953,2.153-.932.464-2.587.331-3.7,1.728-.752.947.575,3.722,0,5.41-.45,1.316-1.992,1.59-3.186,2.931-.634.712-.908,2.491-1.529,3.569C-5437.662,3157.011-5441.96,3158.218-5437.963,3162.215Z" transform="translate(499)" fill="#6e57fe" stroke="#fff" stroke-width="1"/>
    <g transform="matrix(1, 0, 0, 1, -5289.84, 2755.61)" filter="url(#경상북도)">
      <path id="경상북도-2" data-name="경상북도" d="M-5544.431,3013.47c2.532-.2,5.21-1.02,4.928-3.511a6.687,6.687,0,0,0-2.2-4.194c-1.79-1.46-4.77-2.093-4.051-2.571,1.136-.756,3.6.169,5.687-.883s-.025-3.791,3.272-3.3,6.67,4.011,9.114,2.025c.868-.7,1.1-2.152.634-3.775-.6-2.12-2.641-4.8-1.755-6.549,1.374-2.716,3.022.152,6.245-.473,1.125-.219,2.784-1.537,3.81-1.511,2.647.065,3.814,2.493,7.709,1.247s1.671-5.206,4.414-4.258,3.378,5.7,7.527,7.021c4.073,1.3,5.126-.868,8.743-1.157s4.35,1.837,5.367-.531a7.652,7.652,0,0,0,.2-3.848c-.378-2.066-1.717-4.073-1.08-4.962a8.882,8.882,0,0,0,1.35-4.557c.079-1.424.27-3.24.27-3.24a7.418,7.418,0,0,1,2.534-1.431c1.844-.724,5.271-1.695,7.284-3.116,3.533-2.493,3.148-4.344,4.345-5.425,1.085-.879,2.943.454,4.958,0s2.649-1.718,3.072-1.816,4.707,2.706,8.291,2.914,7.582-7.323,9.525-6.954,3.528,6.982,6.079,7.059c3.1.094,5.089-4.778,6.855-4.856s8.075,3.91,10.465,4.025c4.142-.424,4.721-3.484,7.3-2.549s6.147,7.049,10.431,7.19,4.523-4.658,6.515-7.383,6.714-4.118,8.2-4.692c.753-.292,1.717,1.866,3.113,4.692,1.092,2.2,2.63,5,2.589,9.157-.055,5.549-1.742,11.192-.587,19.32.748,5.261,4.609,12.683,4.3,19.06-1.125,11.479-6.52,13.23-7.393,21.217-.556,5.085,4.242,8.412,2.893,18.222s-7.589,5.535-8.673,22.478.91,17.229.865,21.069c-.041,3.482-2.9,5.647-3.856,8.306-.618,1.679.187,4,3.856,5.414,8.083,3.115,8.719-12.769,15.165-9.231,2.462,1.351.266,9.34-2.28,19-3.929,14.906-8.365,32.695-10.04,35.2-.688,1.029-1.778-.638-2.567-1.883a10.271,10.271,0,0,0-4.286-4.232c-.986-.579-3.394-.614-5.793.322-2.131.83-3.57,2.781-5.664,2.575-1.1-.228-1.344-1.8-2.06-3.708-.566-1.5-1.589-3.358-2.6-3.886-1.339-.7-3.258-.045-4.552-.669s-4.456-3.311-5.311-3.436c-1.9-.278-4.105,1.071-5.846,2.321-1.294.759-2.939.071-3.854,2.249-.84,2,.13,4.445-.436,5.519a3.787,3.787,0,0,1-3.079,1.874c-1.071-.089-3.085-1.02-6.93-1.569s-5.2-.669-8.154.632-7.867,6.472-11.806,6.252-9.226-4-11.457-4.442a5.8,5.8,0,0,0-4.839.789c-1.515.819-3.316,2.17-4.909,1.064-2.917-2.025-4.061-9.631-4.051-11.122s2.4-8.132,3.771-8.054c.7.04,2.906,4.207,6.122,5.339a7.362,7.362,0,0,0,6.74-.81c3.752-2.51.932-7.276,1.487-8.86s3.251-.269,3.832-3.461-.634-4.225-.343-5.651,4.266-.722,5.176-3.486-1.431-6.542-1.431-7.5,2.3-5.527.515-8.307-3.966-3.437-7.483-3.776a15.819,15.819,0,0,0-10.162,2.458c-6.613,4.409-7.657,10.429-10.692,11.991s.052-5.387-2.179-6.692-3.794-.446-6.568,2.051-5.723,6.059-5.52,7.53c.171,1.234,2.894,2.138,5.321,3.6,1.481.895,2.472,1.51,2.952,3.227.48,1.545-4.222.172-5.63,1.579s-1.285,3.948-1.133,6.213c.211,3.154,1.158,6.43.961,7.175-.16.606-2.68-.6-4.7-.687a2.181,2.181,0,0,0-2.2,1.885c-.226,1.511,1.115,3.863,2.5,6.158.952,1.581,1.961,3.177,1.741,3.347a3.633,3.633,0,0,1-3.168,0c-1.336-.6-2.3-3.285-5.534-4.016-4.429-1-10.212-.042-11.57-1.188-1.642-1.386.6-2.731,2.21-5.468a8.225,8.225,0,0,0,.751-4.985c-.98-3.243-13.293-15.631-14.811-15.943s-3.72,1.154-8.479-1.25-9.326-7.9-9.326-7.9c.572-1.7,4.129-3.458,3.811-6.963s-5.546-3.982-4.792-6.693c.176-.634,2.962-.9,5.889-2.885,1.545-1.048,3.5-3.6,5.7-5.782,2.05-2.326,4.244-3.949,4.595-5.836.445-1.926-1.861-4.217-1.624-5.047.131-.571,4.213.658,5.354-1.8.454-.978.42-2.525.45-4.561.039-2.287-.139-5.175-1.114-6.211-1.62-1.722-4.658.27-7.089,0-1.128-.125-2.909-3.237-5.738-4.557a6.389,6.389,0,0,0-3.072-.574c-1.774.125-3.456,1.154-3.41-.675.065-2.576,4.017-4.591,5.907-8.642s.008-8.614.574-13.538,1.941-3.581.266-7.7-5.581-6.7-6.949-8.466c-.891-1.15,1.456-.869,3.68-1.418.733-.185,1.417-1.509,1.924-1.485C-5547.669,3011.713-5546.963,3013.673-5544.431,3013.47Z" transform="translate(5788.84 -2755.61)" fill="#6e57fe" stroke="#fff" stroke-width="1"/>
    </g>
    <g id="경상남도" transform="translate(499)">
      <path id="패스_749" data-name="패스 749" d="M-5554.658,3105.459s-14.817,7.331-22.567,16.824a15.608,15.608,0,0,0-3.423,6.962c-.565,2.55-.6,5.969-1.334,8.3-1.67,5.309-5.025,8.875-4.989,9.747.116,2.843,2.872,2.335,3.771,5.163s-.125,4.239,0,6.382c.135,2.3,2.943,3.583,2.263,5.8-1.9,6.2-6.208,4.583-8.3,7.368-1.153,1.537-.912,7.758-.522,14.04.28,4.533.509,9.243,1.393,10.907,1.972,3.713,13.33,12.65,15.518,24.642.281,1.541.24,3.645-1.282,4.9-1.859,1.548-5.908,1.955-7.089,3.318-3.113,3.613-2.036,5.2-2.036,5.2s1.282,5.781,5.958,3.758c.917-.4,1.017-4.322,3.167-5.6,1.7-1.008,4.312-.192,6.788-1.4,2.191-1.07,3.927-3.227,6.335-4.6,1.588-.906,4.425.113,6.109-.679,2.382-1.121,5.228-8.221,6.2-4.9.539,1.845-1.225,5.457-1.6,8.221-.22,1.651,1.424,3.361,1.424,3.361a10.026,10.026,0,0,0-4.447.555,9.6,9.6,0,0,0-4.815,8.238c-.049,2.431,1.463,2.8,3.6,3.528a43.921,43.921,0,0,0,5.4,1.345,13.987,13.987,0,0,0-3.887.29c-.967.2-2.215,1.141-3.771,1.044a9.519,9.519,0,0,1-6.788-3.829c-2.9-4.351,6.614-9.862,2.582-12.183s-10.82,2.843-13.9,8.354c-1.522,2.728.835,4.969,1.451,8.818.638,3.133-4.5,5.976,1.044,10.5s8.528-6.788,10.733-6.208-2.247,4.963,1.276,8.18c1.613,1.473,4.28,1.03,6.671,1.625,2.161.544,3.993,1.925,4.853,1.044.536-.549.149-2.683.172-5.511.02-2.38,2.871-4.754,2.865-7.31,0-1.84-3.037-4.815-3.037-4.815s5.01,1.16,4.313-2.495-3.6-2.491-4.583-5.571a7.563,7.563,0,0,1,.442-5.6,38.135,38.135,0,0,1,4.142,3.741c1.2,1.254,2.433,3.254,3.837,4.177,3.344,2.2,5.395,1.883,5.395,1.883a6.975,6.975,0,0,0-.637,4.615c.173,1,1.595,2.176,2.2,2.843,1.9,2.086,3.771,5.326,6.729,3.2,1.755-1.264,2.017-4.647.638-6.5-2.131-2.882-8.307-4.155-8.307-4.155a10.935,10.935,0,0,0,2.7-2.337c1.122-1.417.446-3.433,1.785-3.33a21.942,21.942,0,0,0,5.355,1.467c3.592.372,6.522-1.982,7.724-.506.521.641-.083,1.577-1.648,2.128-1.37.48-3.925.7-4.119,3.089-.049.6-.245,2.252,1.167,2.437,1.654.221,5.722-1.123,7.758.893,4.34,4.3-7.9,2.177-6.66,6.812.486,1.821,2.2,2.188,5.493,2.835,1.8.354.171,4.771,6.468,5.149a2.821,2.821,0,0,0,2.94-1.581,7.668,7.668,0,0,0,.378-3.158s1.991,2.128,3.742,1.717c.693-.163.573-1.227.583-2.643.028-1.374-.284-3.243-2.025-2.849-2.884.652-2.476,3.776-2.476,3.776s-2.486-3.459-2.218-4.937c.071-.395,2.475-.8,3.293-2.058,1.606-2.468.905-3.954.905-3.954l1.291-1s.7,5.172,2.445,7.419c.883,1.139,3.1,1.4,4.825.45.561-.308.4-1.235,1.03-1.849.171-.2,1.129-.075,1.532.449s-.766,1.028-1.849,2.773a8.1,8.1,0,0,0-1.013,4.094c.329,1.708.74-.218,2.031,2.843.551,1.307-1.278,3.376-1.741,5.917-.492,2.687.619,5.575,4.874,3.481,1.879-.925,3.475-2.773,5.859-5.453.372-.417-1.914-6.37,1.973-9.1s2.32,5.157,6.265,3.359a3.006,3.006,0,0,0,1.276-2.842c-.076-1.209-1.116-2.854-.581-4.527.929-1.855,5.28-.521,5.28-6.012,0-1.12-7.132-.417-7.542-2.437-.256-1.265,2.775-1.989,2.843-3.849.059-1.668-2.777-4.271-2.843-6.382-.138-4.479,5.454-.812,2.262-8.2-.68-1.575-3.38-1.9-5.337,0-.511.5.535,2.712-.638,3.5-.718.484-3.539-1.973-5.1-.58-1.218,1.1,1.531,4.408.348,5.279-.9.66-2.873-.217-4.061.638a3.57,3.57,0,0,0-.7,3.413c.877,1.973,4.061,4.25,3.13,5-1.887,1.517-6.179-2.758-9.047-2.262-4.171.725-6.811,5.437-6.811,5.437s.536-3.923-1.98-4.014c-.57-.011-2.522.487-3.142,0-.693-.516.122-2.382.441-4.9.986-7.774,5.757-4.454,8.064-9.224,1.8-3.717.991-8.4,3.083-8.469,4.462-.137,2.334,6.659,8.548,5.115s1.771-5.061.844-6.452c-.73-2.627.023-6,.754-6.73,1.683-1.683.979,2.438,4.119,3.829,1.012.447,3.086.271,4.815,1.219,1.44.791,4.065,4.358,5.864,5,2.475.883,6.1.277,7.728,0,4-.679,3.332-7.1,2.106-11.01-.425-1.361-1.567-1.624-1.472-1.909.3-.906,4.849.552,7.316-1.659,1.707-1.535.791-5.8,4.072-6.637,2.189-.56,6.9.551,9.578-.6,1.928-.833,2.079-5.36,4.4-6.319,2.18-.9,6.185.36,8.432-.784,2.9-1.479,4.5-4.908,6.863-6.471,3.161-2.09,7.451-1.471,6.079-6.079-.837-2.811-1.234-3.547-3.726-4.118-1.094-.246-3.542.127-6.266-1.824-1.785-1.278-2.459-6.617-4.421-8.177-2.447-1.945-6.037-.132-7.755-2.121a6.977,6.977,0,0,1-1.8-3.243c-.288-2.424,2.5-4.366,4.073-6.26,1.919-2.315,2.718-4.053-.377-4.676-2.312-.466-7.515-2.037-11.011-.754-3.608,1.323-5.844,5.678-12.746,6.637-3.922.545-8.844-4.146-12.972-4.676-2.221-.284-4.129,2.281-6.109,2.64-2.259.407-4.159-1.354-4.827-2.64-4-7.693-1.886-9.2-3.7-9.654s-3.793,2.482-8.3,4.374c-3.151,1.325-6.9,2.163-8.824,1.961-4.3-.453-3.3-3.518-6.335-4.374-4.346-1.225-10.031.377-12.52-1.584-3.014-2.821,2.489-5.053,2.64-9.729.076-2.371-2.8-5.335-6.185-8.879-2.894-3.031-6.278-6.667-7.617-7.336-.858-.429-5.043.543-7.919-.905C-5549.1,3111.34-5554.658,3105.459-5554.658,3105.459Z" fill="#6e57fe" stroke="#fff" stroke-width="1"/>
      <path id="패스_754" data-name="패스 754" d="M-5496.086,3230.712c-1.416,0-3.768,4.025-3.364,5.286s3.33,3.158,4.978-.24S-5494.67,3230.712-5496.086,3230.712Z" fill="#6e57fe" stroke="#fff" stroke-width="1"/>
      <path id="패스_755" data-name="패스 755" d="M-5535.909,3262.014c-2.99.045-3.347,3.67-2.321,5s5.166.7,5.757-.625A3.461,3.461,0,0,0-5535.909,3262.014Z" fill="#6e57fe" stroke="#fff" stroke-width="1"/>
      <path id="패스_756" data-name="패스 756" d="M-5526.939,3271.3c-4.418-4.061-5.935,1.339-6.024,2.365s2.5,4.061,5.177,4.641S-5522.521,3275.357-5526.939,3271.3Z" fill="#6e57fe" stroke="#fff" stroke-width="1"/>
      <path id="패스_757" data-name="패스 757" d="M-5464.842,3226.835a17.247,17.247,0,0,0-.4,5.712c.089,2.153.549,4.485,2.678,4.15,3.972-.625,4.292-6.75,3.57-9.238S-5463.949,3224.525-5464.842,3226.835Z" fill="#6e57fe" stroke="#fff" stroke-width="1"/>
    </g>
  </g>
</svg>
