<svg xmlns="http://www.w3.org/2000/svg" xmlns:xlink="http://www.w3.org/1999/xlink" width="346.575" height="315.621" viewBox="0 0 346.575 315.621">
  <defs>
    <linearGradient id="linear-gradient" x1="0.5" y1="1" x2="0.5" gradientUnits="objectBoundingBox">
      <stop offset="0" stop-color="gray" stop-opacity="0.251"/>
      <stop offset="0.54" stop-color="gray" stop-opacity="0.122"/>
      <stop offset="1" stop-color="gray" stop-opacity="0.102"/>
    </linearGradient>
  </defs>
  <g id="그룹_119" data-name="그룹 119" transform="translate(0 -0.008)">
    <path id="패스_281" data-name="패스 281" d="M245.207,112.678c21.929-.873,42.819-8.982,62.762-17.854s39.7-18.7,61.1-23.4c13.767-3.024,29.513-3.451,40.6,5,10.677,8.151,14.126,22.182,15.979,35.216,1.4,9.8,2.216,20.121-1.609,29.3-2.653,6.373-7.366,11.73-10.622,17.854-11.341,21.239-3.327,47.431,8.962,68.169,5.76,9.731,12.452,19.019,16.9,29.367s6.506,22.221,2.616,32.786c-3.859,10.48-13.052,18.336-23.007,23.867-20.225,11.237-44.049,14.45-67.3,16.271-51.445,4.033-103.162,2.286-154.743.539-19.09-.648-38.261-1.3-57.04-4.685-10.429-1.879-21.194-4.856-28.767-12.052-9.609-9.133-11.991-24.6-5.554-36.05,10.805-19.209,40.66-23.979,48.223-44.6,4.154-11.345-.115-23.983-6.153-34.51-12.957-22.574-34.673-42.381-35.818-68.184-.786-17.726,9.657-35.472,25.8-43.86,16.918-8.822,40.386-7.7,52.862,6.847C203.259,107.694,225.846,113.446,245.207,112.678Z" transform="translate(-101.886 -59.335)" fill="#6c63ff" opacity="0.1"/>
    <path id="패스_282" data-name="패스 282" d="M99.641,511.58l115.977-.648,11.524-30.962-40.748-3.388,7.1-33.947-80.6-11.966,77.177-30.733-6.817-1.855L59.16,421.271l6.834,52.977,9.769,29.114Z" transform="translate(99.389 -243.565)" fill="#6c63ff"/>
    <path id="패스_283" data-name="패스 283" d="M198.385,698.64s-7.116-1.3-11.385,4.456c0,0,3.131,2.826,9.867-1.087Z" transform="translate(114.842 -444.241)" fill="#6c63ff"/>
    <path id="패스_284" data-name="패스 284" d="M177.972,698.51s4.54,6.4,2.3,13.527c0,0-3.7-1.7-4.1-10.336Z" transform="translate(136.001 -444.239)" fill="#6c63ff"/>
    <path id="패스_285" data-name="패스 285" d="M186.991,668.137s-2.846-5.981-14.231,2.391a6.342,6.342,0,0,0,6.546,3.7C184.335,673.9,185.663,671.289,186.991,668.137Z" transform="translate(131.061 -424.389)" fill="#6c63ff"/>
    <path id="패스_286" data-name="패스 286" d="M153.013,670.28s5.906-.776,6.479,14.711c0,0-3.744.889-6.4-4.01S151.519,673.334,153.013,670.28Z" transform="translate(165.774 -426.962)" fill="#6c63ff"/>
    <path id="패스_287" data-name="패스 287" d="M175.81,629.418s-3.321-10.542-15.37-3.043c0,0,2.751,9.672,14.136,6.63Z" transform="translate(146.417 -398.455)" fill="#6c63ff"/>
    <path id="패스_288" data-name="패스 288" d="M166.882,590.022s-6.262-10.651-17.362-.776c0,0,3.89,10,16.413,4.565Z" transform="translate(159.044 -374.817)" fill="#6c63ff"/>
    <path id="패스_289" data-name="패스 289" d="M163.9,552.364s-7.305-9.785-18.3,0c0,0,6.926,8.586,18.3,2.5Z" transform="translate(163.358 -352.157)" fill="#6c63ff"/>
    <path id="패스_290" data-name="패스 290" d="M160.171,514.272s-7.4-10.216-17.931-.543c0,0,8.349,9.02,17.931,2.934Z" transform="translate(168.222 -328.632)" fill="#6c63ff"/>
    <path id="패스_291" data-name="패스 291" d="M161.847,476.805s-7.793-13.15-17.647-4.238c0,0,8.349,11.3,17.647,6.738Z" transform="translate(165.882 -304.098)" fill="#6c63ff"/>
    <path id="패스_292" data-name="패스 292" d="M167.356,438.707s-8.254-13.041-17.836-3.043c0,0,9.772,11.3,17.836,5.434Z" transform="translate(158.57 -281.106)" fill="#6c63ff"/>
    <path id="패스_293" data-name="패스 293" d="M174.677,401.223s-9.772-12.257-18.3-7.375c0,0,10.182,13.018,18.724,10.627Z" transform="translate(148.498 -257.126)" fill="#6c63ff"/>
    <path id="패스_294" data-name="패스 294" d="M183.2,364.3s-11.276-15.013-17.836-10c0,0,8.308,11.644,18.636,12.809Z" transform="translate(136.563 -233.006)" fill="#6c63ff"/>
    <path id="패스_295" data-name="패스 295" d="M195.441,328.139s-9.87-12.257-17.081-9.214c0,0,8.444,12.715,18.406,13.041Z" transform="translate(119.389 -211.689)" fill="#6c63ff"/>
    <path id="패스_296" data-name="패스 296" d="M209.694,292.018s-10.911-11.737-15.654-9.673c0,0,7.875,13.042,16.129,12.281Z" transform="translate(100.673 -189.456)" fill="#6c63ff"/>
    <path id="패스_297" data-name="패스 297" d="M222.839,254.122s-9.393-14.023-14.519-12.937c0,0,5.7,12.5,14.519,14.361Z" transform="translate(83.164 -164.383)" fill="#6c63ff"/>
    <path id="패스_298" data-name="패스 298" d="M234.078,213.154s-8.3-10.748-12.788-10.724c0,0,6.553,14.361,13.13,14.229Z" transform="translate(67.188 -140.707)" fill="#6c63ff"/>
    <path id="패스_299" data-name="패스 299" d="M235.593,165.108l-8.02-22.388s-.4,20.238,9.04,26.541Z" transform="translate(62.868 -104.173)" fill="#6c63ff"/>
    <path id="패스_300" data-name="패스 300" d="M242.9,104.918s-1.328-18.7-.474-20.218c0,0-5.733,15.545.529,28.478Z" transform="translate(52.301 -68.673)" fill="#6c63ff"/>
    <path id="패스_301" data-name="패스 301" d="M120.069,635.937s8.315-5.9,13.7,8.539c0,0-7.4,5.628-14.678-4.856Z" transform="translate(202.469 -405.222)" fill="#6c63ff"/>
    <path id="패스_302" data-name="패스 302" d="M104.958,594.869s10.2-5.329,15.146,9.75c0,0-7.878,6.21-16.074-5.939Z" transform="translate(221.236 -380.266)" fill="#6c63ff"/>
    <path id="패스_303" data-name="패스 303" d="M90.2,554.674s7.305-9.785,18.3,0c0,0-6.926,8.586-18.3,2.5Z" transform="translate(237.529 -353.571)" fill="#6c63ff"/>
    <path id="패스_304" data-name="패스 304" d="M88.58,514.272s7.4-10.216,17.931-.543c0,0-8.349,9.02-17.931,2.934Z" transform="translate(240.064 -328.632)" fill="#6c63ff"/>
    <path id="패스_305" data-name="패스 305" d="M95.58,473.6s5.191-14.73,16.474-8.4c0,0-6.1,13.061-16.013,10.841Z" transform="translate(232.149 -300.521)" fill="#6c63ff"/>
    <path id="패스_306" data-name="패스 306" d="M102.45,433.691s5.16-14.986,16.6-8.038c0,0-7.007,13.736-16.095,10.352Z" transform="translate(222.822 -276.164)" fill="#6c63ff"/>
    <path id="패스_307" data-name="패스 307" d="M126.89,386.631s2.033-16.43,11.52-17.9c0,0-2.013,17.327-10.243,20.863Z" transform="translate(195.184 -242.46)" fill="#6c63ff"/>
    <path id="패스_308" data-name="패스 308" d="M142.94,349.466s.793-19.8,8.637-20.486c0,0-.264,15.025-7.753,23.288Z" transform="translate(176.579 -218.138)" fill="#6c63ff"/>
    <path id="패스_309" data-name="패스 309" d="M155.67,312.882s2.338-16.461,9.826-18.472c0,0-.928,15.941-9.084,22.512Z" transform="translate(158.346 -196.986)" fill="#6c63ff"/>
    <path id="패스_310" data-name="패스 310" d="M182.408,277s.078-17.148,4.652-19.667c0,0,2.836,15.526-3.327,21.856Z" transform="translate(127.072 -174.298)" fill="#6c63ff"/>
    <path id="패스_311" data-name="패스 311" d="M192.928,242.354s.64-17.656,5.377-20.144c0,0,1.62,13.973-4.669,21.3Z" transform="translate(112.726 -152.81)" fill="#6c63ff"/>
    <path id="패스_312" data-name="패스 312" d="M210.93,205.74s.027-14.361,3.409-17.73c0,0,3.361,15.731-1.643,20.618Z" transform="translate(89.675 -131.884)" fill="#6c63ff"/>
    <path id="패스_313" data-name="패스 313" d="M216.146,160.9l3.29-23.9s4.469,19.586-3.446,28.218Z" transform="translate(82.711 -100.673)" fill="#6c63ff"/>
    <path id="패스_314" data-name="패스 314" d="M210.132,109.224s8.444-16.069,8.271-17.854c0,0-.9,16.841-11.52,25.229Z" transform="translate(88.085 -72.754)" fill="#6c63ff"/>
    <path id="패스_315" data-name="패스 315" d="M200.724,86.25s7.969-22.823,11.575-24.67c0,0-11.385,6.629-12.239,24.018Z" transform="translate(96.503 -54.527)" fill="#6c63ff"/>
    <path id="패스_316" data-name="패스 316" d="M226.22,167.2l.546-.19c-6.726-25.124-8.4-41.143-4.727-45.16l-.39-.474C217.749,125.618,219.331,141.462,226.22,167.2Z" transform="translate(75.429 -91.116)" fill="#444053"/>
    <path id="패스_317" data-name="패스 317" d="M183.145,295.372l.806-.33c-.715-2.3-1.484-4.638-2.291-6.94-7.021-20.043-13-38.69-16.83-53l-.7-.388c3.839,14.342,9.711,33.7,16.738,53.773C181.672,290.742,182.437,293.067,183.145,295.372Z" transform="translate(137.024 -160.458)" fill="#444053"/>
    <path id="패스_318" data-name="패스 318" d="M140.7,525.848c.108-.136,11.009-14.2,18.609-38.2a159.64,159.64,0,0,0,7.343-43.774c.522-18.681-2.9-39.54-8.762-58.489l-.637.854c13.16,42.528,7.932,78.971,1,100.916-7.519,23.789-18.3,37.7-18.4,37.836Z" transform="translate(162.501 -252.647)" fill="#444053"/>
    <path id="패스_319" data-name="패스 319" d="M508.27,670.36s7.681,10.74,1.582,26.976L571.181,727.8l5.886,1.413,2.711-13.585-1.813-17.144v-9.37Z" transform="translate(-375.409 -427.015)" fill="#d5d6db"/>
    <path id="패스_320" data-name="패스 320" d="M256.521,581.116,171.636,563.39,59.16,583.915l69.861,28.812Z" transform="translate(70.008 -344.711)" fill="#6c63ff"/>
    <path id="패스_321" data-name="패스 321" d="M256.521,581.116,171.636,563.39,59.16,583.915l69.861,28.812Z" transform="translate(70.008 -344.711)" fill="#6c63ff"/>
    <path id="패스_322" data-name="패스 322" d="M265.8,652.47s7.939,17.23-1.21,33.143L138.712,716.858s7.814-13.725-.4-32.775Z" transform="translate(60.73 -416.069)" fill="#6c63ff"/>
    <path id="패스_323" data-name="패스 323" d="M265.8,652.47s7.939,17.23-1.21,33.143L138.712,716.858s7.814-13.725-.4-32.775Z" transform="translate(60.73 -416.069)" opacity="0.1"/>
    <path id="패스_324" data-name="패스 324" d="M152.859,667.86s4.537,12.607,0,20.765" transform="translate(169.92 -425.486)" opacity="0.1"/>
    <path id="패스_325" data-name="패스 325" d="M223.829,764.21,153.555,729.86s-3.93.97-1.389,4.27,70.308,33.38,70.308,33.38l127.233-34.544Z" transform="translate(-24.386 -463.421)" fill="#6c63ff"/>
    <path id="패스_326" data-name="패스 326" d="M223.829,764.21,153.555,729.86s-3.93.97-1.389,4.27,70.308,33.38,70.308,33.38l127.233-34.544Z" transform="translate(-24.386 -463.421)" opacity="0.1"/>
    <path id="패스_327" data-name="패스 327" d="M496.921,742.86s6.777,9.315,0,23.288" transform="translate(-291.718 -471.375)" opacity="0.1"/>
    <path id="패스_427" data-name="패스 427" d="M.015.383l32.511,1.4L32.511,1.4,0,0Z" transform="translate(202.683 283.312) rotate(-161.55)" opacity="0.1"/>
    <path id="패스_428" data-name="패스 428" d="M.016.382,39.778,2.269l-.016-.382L0,0Z" transform="translate(202.681 286.431) rotate(-159.18)" opacity="0.1"/>
    <path id="패스_429" data-name="패스 429" d="M.017.381l46.2,2.309L46.2,2.309,0,0Z" transform="matrix(-0.925, -0.379, 0.379, -0.925, 202.469, 290.111)" opacity="0.1"/>
    <path id="패스_430" data-name="패스 430" d="M.018.38,53.4,3.224l-.018-.38L0,0Z" transform="translate(201.97 293.354) rotate(-155.69)" opacity="0.1"/>
    <path id="패스_431" data-name="패스 431" d="M.018.38l58.3,3.042-.018-.38L0,0Z" transform="translate(201.597 294.936) rotate(-156.39)" opacity="0.1"/>
    <path id="패스_432" data-name="패스 432" d="M.018.38l69.74,3.611-.018-.38L0,0Z" transform="translate(200.81 297.592) rotate(-156.64)" opacity="0.1"/>
    <path id="패스_328" data-name="패스 328" d="M248.195,591.3,188.56,576.94,152.23,584.9,201.1,602.945Z" transform="translate(46.799 -353.002)" fill="#fff" opacity="0.3"/>
    <path id="패스_329" data-name="패스 329" d="M525.843,659.69s-3.083,1.424-1.274,3.625S595.714,688.5,595.714,688.5Z" transform="translate(-396.675 -420.487)" fill="#6c63ff"/>
    <path id="패스_330" data-name="패스 330" d="M607.57,574.18s7.678,10.736,1.579,26.976l61.329,30.469,5.885,1.421,2.711-13.585-1.84-17.14v-9.381Z" transform="translate(-508.352 -368.166)" fill="#d5d6db"/>
    <path id="패스_331" data-name="패스 331" d="M355.821,484.932,270.94,467.21,158.46,487.735l69.861,28.812Z" transform="translate(-62.938 -285.863)" fill="#3a3768"/>
    <path id="패스_332" data-name="패스 332" d="M365.062,556.29s7.942,17.23-1.206,33.143L237.979,620.678s7.81-13.736-.417-32.778Z" transform="translate(-72.166 -357.22)" fill="#3a3768"/>
    <path id="패스_333" data-name="패스 333" d="M365.062,556.29s7.942,17.23-1.206,33.143L237.979,620.678s7.81-13.736-.417-32.778l39.806-9.87Z" transform="translate(-72.166 -357.22)" opacity="0.1"/>
    <path id="패스_334" data-name="패스 334" d="M252.153,571.68s4.534,12.6,0,20.766" transform="translate(36.982 -366.637)" opacity="0.1"/>
    <path id="패스_335" data-name="패스 335" d="M323.12,668.03l-70.278-34.35s-3.927.97-1.386,4.269,70.308,33.38,70.308,33.38L449,636.785Z" transform="translate(-157.32 -404.572)" fill="#3a3768"/>
    <path id="패스_336" data-name="패스 336" d="M323.12,668.03l-70.278-34.35s-3.927.97-1.386,4.269,70.308,33.38,70.308,33.38L449,636.785Z" transform="translate(-157.32 -404.572)" opacity="0.1"/>
    <path id="패스_337" data-name="패스 337" d="M596.211,646.68s6.777,9.315,0,23.288" transform="translate(-424.651 -412.526)" opacity="0.1"/>
    <path id="패스_433" data-name="패스 433" d="M.015.383l32.511,1.4L32.511,1.4,0,0Z" transform="translate(169.037 245.984) rotate(-161.55)" opacity="0.1"/>
    <path id="패스_434" data-name="패스 434" d="M.016.382,39.778,2.269l-.016-.382L0,0Z" transform="translate(169.031 249.102) rotate(-159.18)" opacity="0.1"/>
    <path id="패스_435" data-name="패스 435" d="M.017.381l46.2,2.309L46.2,2.309,0,0Z" transform="matrix(-0.925, -0.379, 0.379, -0.925, 168.825, 252.777)" opacity="0.1"/>
    <path id="패스_436" data-name="패스 436" d="M.018.38,53.4,3.224l-.018-.38L0,0Z" transform="translate(168.321 256.02) rotate(-155.69)" opacity="0.1"/>
    <path id="패스_437" data-name="패스 437" d="M.018.38l58.3,3.042-.018-.38L0,0Z" transform="translate(167.953 257.598) rotate(-156.39)" opacity="0.1"/>
    <path id="패스_438" data-name="패스 438" d="M.018.38l69.74,3.611-.018-.38L0,0Z" transform="translate(167.164 260.253) rotate(-156.64)" opacity="0.1"/>
    <path id="패스_338" data-name="패스 338" d="M347.495,495.121,287.86,480.76l-36.33,7.957L300.4,506.765Z" transform="translate(-86.147 -294.153)" fill="#fff" opacity="0.45"/>
    <path id="패스_339" data-name="패스 339" d="M625.172,563.51s-3.08,1.424-1.274,3.621,71.135,25.186,71.135,25.186Z" transform="translate(-529.65 -361.638)" fill="#3a3768"/>
    <path id="패스_340" data-name="패스 340" d="M617,464.15s7.681,19.279,1.582,35.515l61.329,21.93,5.872,1.424,2.711-13.585-1.813-17.144v-9.381Z" transform="translate(-520.967 -300.843)" fill="#d5d6db"/>
    <path id="패스_341" data-name="패스 341" d="M365.255,374.906,280.37,357.18,167.89,377.7l69.864,28.812Z" transform="translate(-75.567 -218.54)" fill="#6c63ff"/>
    <path id="패스_342" data-name="패스 342" d="M374.5,446.26s7.952,17.229-1.2,33.143L247.424,510.649s7.814-13.736-.413-32.775Z" transform="translate(-84.81 -289.897)" fill="#6c63ff"/>
    <path id="패스_343" data-name="패스 343" d="M374.5,446.26s7.952,17.229-1.2,33.143L247.424,510.649s7.814-13.736-.413-32.775Z" transform="translate(-84.81 -289.897)" opacity="0.1"/>
    <path id="패스_344" data-name="패스 344" d="M261.589,461.65s4.537,12.607,0,20.765" transform="translate(24.348 -299.314)" opacity="0.1"/>
    <path id="패스_345" data-name="패스 345" d="M332.559,562.9l-70.274-25.811s-3.93.97-1.389,4.269S331.2,566.194,331.2,566.194L458.436,531.65Z" transform="translate(-169.958 -342.144)" fill="#6c63ff"/>
    <path id="패스_346" data-name="패스 346" d="M332.559,562.9l-70.274-25.811s-3.93.97-1.389,4.269S331.2,566.194,331.2,566.194L458.436,531.65Z" transform="translate(-169.958 -342.144)" opacity="0.1"/>
    <path id="패스_347" data-name="패스 347" d="M605.651,536.65s6.777,9.315,0,23.288" transform="translate(-437.29 -345.203)" opacity="0.1"/>
    <path id="패스_439" data-name="패스 439" d="M.015.383l32.511,1.4L32.511,1.4,0,0Z" transform="translate(165.838 203.277) rotate(-161.55)" opacity="0.1"/>
    <path id="패스_440" data-name="패스 440" d="M.016.382,39.778,2.269l-.016-.382L0,0Z" transform="translate(165.834 206.397) rotate(-159.18)" opacity="0.1"/>
    <path id="패스_441" data-name="패스 441" d="M.017.381l46.2,2.309L46.2,2.309,0,0Z" transform="matrix(-0.925, -0.379, 0.379, -0.925, 165.63, 210.073)" opacity="0.1"/>
    <path id="패스_442" data-name="패스 442" d="M.018.38,53.4,3.224l-.018-.38L0,0Z" transform="translate(165.122 213.313) rotate(-155.69)" opacity="0.1"/>
    <path id="패스_443" data-name="패스 443" d="M.018.38l58.3,3.042-.018-.38L0,0Z" transform="translate(164.752 214.894) rotate(-156.39)" opacity="0.1"/>
    <path id="패스_444" data-name="패스 444" d="M.018.38l69.74,3.611-.018-.38L0,0Z" transform="translate(163.964 217.552) rotate(-156.64)" opacity="0.1"/>
    <path id="패스_348" data-name="패스 348" d="M356.925,385.091,297.29,370.73l-36.33,7.957,48.867,18.048Z" transform="translate(-98.772 -226.83)" fill="#fff" opacity="0.3"/>
    <path id="패스_349" data-name="패스 349" d="M634.6,453.48s-3.083,1.424-1.274,3.625,71.135,25.186,71.135,25.186Z" transform="translate(-542.277 -294.315)" fill="#6c63ff"/>
    <path id="패스_350" data-name="패스 350" d="M365.337,149.89s12.876-.889,11.371,9.459a2.693,2.693,0,0,1-1.145,2.659s-.024-.776-1.321-.508a5.055,5.055,0,0,1-1.4.078,2.738,2.738,0,0,1-1.711-.807h0s-3.622-1.716-5.032-8.5a7.2,7.2,0,0,1-1.016-1.859l2.182,1.063a5.07,5.07,0,0,0-.159,3.291s.071-3.225.491-3.152c.085,0,1.128.625,1.128.625s-1.277,3.132-.312,5.407c0,0-.366-3.858.712-5.182l1.532,1.025s-1.494,3.233-.481,5.873c0,0-.261-4.048.8-5.624l1.389,1.242s-1.406,3.187-.549,5.376c0,0,.112-4.712.847-5.069a9.2,9.2,0,0,1,1.4,1.731s-.962,2.329-.362,3.536c0,0,.362-3.14.678-3.156a11.22,11.22,0,0,1,1.335,3.493,8.335,8.335,0,0,0-1.04-3.7,3.5,3.5,0,0,1,1.85,1.1,2.057,2.057,0,0,0-2.152-1.6,9.309,9.309,0,0,0-1.267-1.673,6.975,6.975,0,0,1,3.138.411s-1.044-1.386-3.493-.776l-1.355-1.281a10.226,10.226,0,0,1,3.659.043s-1.257-1.227-4.029-.334l-1.494-1.021a11.922,11.922,0,0,1,3.5-.345s-1.376-.85-3.934.07l-1.064-.547s1.6-.361,2.074-.419.495-.206.495-.206a4.94,4.94,0,0,0-3.016.388A12.619,12.619,0,0,1,365.337,149.89Z" transform="translate(-123.943 -108.548)" fill="#6c63ff"/>
    <path id="패스_351" data-name="패스 351" d="M899.92,259.47s12.876-.889,11.371,9.459a2.693,2.693,0,0,1-1.145,2.659s-.024-.776-1.321-.508a5.222,5.222,0,0,1-1.4.078,2.732,2.732,0,0,1-1.694-.807h0s-3.626-1.716-5.032-8.5a7.2,7.2,0,0,1-1.017-1.859l2.175,1.063a5.07,5.07,0,0,0-.159,3.291s.071-3.225.488-3.152c.085,0,1.132.625,1.132.625s-1.277,3.132-.315,5.407c0,0-.366-3.858.715-5.182l1.531,1.025s-1.494,3.233-.481,5.873c0,0-.261-4.048.8-5.624l1.386,1.242s-1.4,3.187-.546,5.376c0,0,.112-4.712.847-5.069a9.336,9.336,0,0,1,1.4,1.731s-.962,2.329-.366,3.536c0,0,.366-3.14.678-3.156a11.221,11.221,0,0,1,1.335,3.493,8.306,8.306,0,0,0-1.044-3.7,3.513,3.513,0,0,1,1.853,1.1,2.061,2.061,0,0,0-2.152-1.6,9.458,9.458,0,0,0-1.267-1.677,7,7,0,0,1,3.138.415s-1.043-1.386-3.493-.776l-1.355-1.281a10.229,10.229,0,0,1,3.66.043s-1.254-1.227-4.029-.334l-1.491-1.021a11.923,11.923,0,0,1,3.5-.345s-1.376-.85-3.934.07l-1.067-.547s1.606-.361,2.077-.419.495-.206.495-.206a4.9,4.9,0,0,0-3.016.388A12.812,12.812,0,0,1,899.92,259.47Z" transform="translate(-839.668 -175.596)" fill="#6c63ff" opacity="0.1"/>
    <path id="패스_352" data-name="패스 352" d="M421.022,301.1s5.611-13.325,12.754-6.757a2.476,2.476,0,0,1,1.467,2.441s-.593-.353-1.017,1.075a7.329,7.329,0,0,1-.623,1.436,3.03,3.03,0,0,1-1.454,1.32h0s-3.073,2.787-8.932.885c0,0-1.637.322-1.9.1l1.87-1.657a3.973,3.973,0,0,0,2.433,1.762s-2.426-1.642-2.165-2.022c.054-.078,1.017-.827,1.017-.827s1.765,2.806,3.968,2.95c0,0-3.117-1.514-3.6-3.241l1.525-1.032s1.738,3.074,4.242,3.346c0,0-3.212-1.712-3.893-3.544l1.62-.776s1.745,2.958,3.832,3.171c0,0-3.537-2.41-3.449-3.322a7.708,7.708,0,0,1,2-.555s1.294,2.092,2.514,2.092c0,0-2.213-1.9-2.077-2.2a7.851,7.851,0,0,1,3.321.388,5.894,5.894,0,0,0-3.331-.776,3.654,3.654,0,0,1,1.742-1.316s-1.213-.528-2.267,1.37a7.439,7.439,0,0,0-1.894.45,9.245,9.245,0,0,1,1.843-2.93s-1.565.361-2.28,3.105l-1.643.745a13.584,13.584,0,0,1,1.816-3.637s-1.545.656-2.219,3.881l-1.5.994a16.583,16.583,0,0,1,1.44-3.664s-1.318.963-1.864,3.967l-.939.8s.508-1.781.678-2.278.085-.6.085-.6a6.881,6.881,0,0,0-1.179,3.2S421.144,301.216,421.022,301.1Z" transform="translate(-201.314 -195.832)" fill="#6c63ff" opacity="0.1"/>
    <path id="패스_353" data-name="패스 353" d="M804.8,197.48s5.608-13.325,12.754-6.758a2.481,2.481,0,0,1,1.467,2.441s-.6-.349-1.017,1.075a7.161,7.161,0,0,1-.627,1.44,3.013,3.013,0,0,1-1.45,1.316h0s-3.077,2.787-8.932.889c0,0-1.637.318-1.908.093l1.86-1.661a3.973,3.973,0,0,0,2.43,1.766s-2.423-1.646-2.162-2.026c.054-.078,1.017-.827,1.017-.827s1.762,2.806,3.968,2.95c0,0-3.121-1.514-3.6-3.237l1.548-1.025s1.735,3.07,4.242,3.346c0,0-3.212-1.716-3.9-3.548l1.623-.776s1.745,2.962,3.829,3.171c0,0-3.534-2.41-3.446-3.319a7.527,7.527,0,0,1,2-.555s1.294,2.088,2.517,2.088c0,0-2.216-1.9-2.08-2.2a7.869,7.869,0,0,1,3.324.388,5.891,5.891,0,0,0-3.331-.776,3.635,3.635,0,0,1,1.738-1.316s-1.213-.528-2.267,1.37a7.471,7.471,0,0,0-1.894.454,9.214,9.214,0,0,1,1.847-2.934s-1.565.365-2.28,3.125l-1.647.745a13.588,13.588,0,0,1,1.816-3.641s-1.545.656-2.216,3.881l-1.508.994a16.738,16.738,0,0,1,1.444-3.664s-1.322.963-1.864,3.967l-.939.8s.5-1.782.678-2.278.085-.594.085-.594a6.9,6.9,0,0,0-1.176,3.2S804.908,197.6,804.8,197.48Z" transform="translate(-715.133 -132.431)" fill="#6c63ff" opacity="0.1"/>
    <path id="패스_354" data-name="패스 354" d="M857.663,367.284s5.608-13.329,12.764-6.761a2.48,2.48,0,0,1,1.467,2.441s-.6-.349-1.017,1.075a7.161,7.161,0,0,1-.623,1.44,3.011,3.011,0,0,1-1.45,1.316h0s-3.077,2.791-8.935.889c0,0-1.633.322-1.9.093l1.87-1.657a3.973,3.973,0,0,0,2.433,1.766s-2.423-1.646-2.162-2.026c.054-.078,1.016-.827,1.016-.827s1.762,2.806,3.968,2.954c0,0-3.121-1.518-3.6-3.241l1.528-1.032s1.735,3.074,4.242,3.346c0,0-3.212-1.716-3.9-3.548l1.623-.776s1.745,2.958,3.829,3.171c0,0-3.537-2.41-3.449-3.322a7.557,7.557,0,0,1,2-.555s1.294,2.088,2.518,2.088c0,0-2.216-1.9-2.08-2.2a7.869,7.869,0,0,1,3.324.388,5.909,5.909,0,0,0-3.334-.776,3.627,3.627,0,0,1,1.742-1.316s-1.213-.532-2.267,1.37a7.442,7.442,0,0,0-1.894.45,9.291,9.291,0,0,1,1.843-2.934s-1.565.365-2.28,3.125l-1.643.745a13.527,13.527,0,0,1,1.816-3.637s-1.545.652-2.216,3.881l-1.508.99a16.735,16.735,0,0,1,1.443-3.664s-1.322.963-1.867,3.971l-.939.776s.508-1.782.678-2.278.085-.594.085-.594a6.858,6.858,0,0,0-1.176,3.2A14.046,14.046,0,0,1,857.663,367.284Z" transform="translate(-785.914 -236.325)" fill="#6c63ff" opacity="0.1"/>
    <ellipse id="타원_119" data-name="타원 119" cx="7.79" cy="0.998" rx="7.79" ry="0.998" transform="translate(270.357 302.373)" fill="#6c63ff" opacity="0.1"/>
    <ellipse id="타원_120" data-name="타원 120" cx="7.79" cy="0.998" rx="7.79" ry="0.998" transform="translate(321.423 285.419)" fill="#6c63ff" opacity="0.1"/>
    <ellipse id="타원_121" data-name="타원 121" cx="7.79" cy="0.998" rx="7.79" ry="0.998" transform="translate(231.432 313.633)" fill="#6c63ff" opacity="0.1"/>
    <ellipse id="타원_122" data-name="타원 122" cx="7.79" cy="0.998" rx="7.79" ry="0.998" transform="translate(31.96 289.106)" fill="#6c63ff" opacity="0.1"/>
    <ellipse id="타원_123" data-name="타원 123" cx="7.79" cy="0.998" rx="7.79" ry="0.998" transform="translate(96.782 284.266)" fill="#6c63ff" opacity="0.1"/>
    <ellipse id="타원_124" data-name="타원 124" cx="9.213" cy="1.813" rx="9.213" ry="1.813" transform="translate(137.293 306.243)" fill="#6c63ff" opacity="0.1"/>
    <path id="패스_355" data-name="패스 355" d="M668.489,790.14s12.828,7.592,6.2,16.535a2.551,2.551,0,0,1-2.426,1.8s.359-.753-1.016-1.355a6.364,6.364,0,0,1-1.386-.842,3.725,3.725,0,0,1-1.24-1.9h0s-2.623-4.021-.59-11.462a8.434,8.434,0,0,1-.034-2.445l1.559,2.449a5.01,5.01,0,0,0-1.8,3.059s1.694-3.055,2.033-2.717c.074.07.773,1.339.773,1.339s-2.792,2.17-3,4.988c0,0,1.572-3.947,3.27-4.51l.972,1.987s-3.049,2.127-3.388,5.325c0,0,1.772-4.056,3.581-4.875l.715,2.1s-2.941,2.143-3.212,4.805c0,0,2.46-4.452,3.344-4.312a12.113,12.113,0,0,1,.481,2.581s-2.077,1.591-2.114,3.155c0,0,1.918-2.775,2.213-2.593a13.314,13.314,0,0,1-.468,4.242,9.336,9.336,0,0,0,.851-4.242,4.8,4.8,0,0,1,1.23,2.267s.552-1.533-1.267-2.946a12.151,12.151,0,0,0-.383-2.438A9.113,9.113,0,0,1,676.2,802.6a4.292,4.292,0,0,0-2.978-3.016l-.678-2.127a12.4,12.4,0,0,1,3.493,2.438s-.593-2-3.7-2.958l-.922-1.941a14.74,14.74,0,0,1,3.531,1.941,6.011,6.011,0,0,0-3.815-2.511l-.749-1.223s1.721.7,2.2.955.576.128.576.128a5.9,5.9,0,0,0-3.087-1.607A17.471,17.471,0,0,1,668.489,790.14Z" transform="translate(-526.093 -500.304)" fill="#6c63ff"/>
    <path id="패스_356" data-name="패스 356" d="M465.23,189.866c2.216-6.9,14.414-7.545,19.707-5.787,3.761,1.254,11.69,2.667,15.925,3.377l.274-.3c-.549-.186-.562-.644-.495-1.324a23.711,23.711,0,0,0-.034-2.686c-2.6.924-4.906-1.261-4.906-1.261h0c-3.049-1.553-2.23-8.2-2.812-10.014-.437-1.359-.908-9.362-1.118-13.352h-.044l-.024-1.339c-.03-.578-.044-.916-.044-.916s-.3-9.758-.881-11.733c-.542-1.816-.983-10.969-1.05-12.42v-.19l.044-.846c-.03-.617-.044-1.3-.041-2.026,0-3.319.3-7.5.339-8.174v-.353c-.024-1.417.132-8.512,5.4-11.194,1.942-.994,4.276-2.177,6.536-3.33.583-5.764,1.914-11.5,1.8-17.3,0-.873-.068-1.747-.142-2.616,0,.252.024.508.027.776v1.692c-.2-7.262-2.6-14.563-2.372-21.67.02.695.064,1.393.122,2.092a25.7,25.7,0,0,1,.651-7.138,4.424,4.424,0,0,1,1.064-2.212,4.08,4.08,0,0,1,1.857-.842,33.12,33.12,0,0,1,4.876-1.04,9.146,9.146,0,0,1,1.1-2.441c3.436-5.4,8.525-10.48,14.543-11.644,3.019-.582,6.492-.1,8.545,2.375a6.981,6.981,0,0,1,.6.7c1.1,1.51,1.579,3.493,2.711,5,.074.1.159.194.24.291,2.216,2.271,5.669,2.744,8.132,4.782a10.307,10.307,0,0,1,1.216,1.215,23.24,23.24,0,0,1,2.657,3.7,16.25,16.25,0,0,1,2.6,5.776c.708,4.27-1.83,8.318-2.3,12.615-1.05,9.614,8.237,18.146,6.479,27.632a13.246,13.246,0,0,1-2.989,6.144c3.622,3.757,6.706,7.4,6.706,7.4v.217h.573l-.058.776h.058l-.315,4.211.315,6.133v.578h-.02c-.105,2.247-.522,10.328-1.017,12.032-.583,1.976-.877,11.733-.877,11.733s-.644,13.791-1.233,15.615.247,8.45-2.812,10.014h0a6.03,6.03,0,0,1-3.073,1.459c.156,1.452.058,2.5-.447,2.833a1.341,1.341,0,0,1-.712.233,9.047,9.047,0,0,1,.552,1.106,12.855,12.855,0,0,0,3.551-.959c3.287-1.553,14.194-5.046,17.362-2.589s10.792,4.685,7.271,14.575-5.16,10.138-5.16,10.138a13.613,13.613,0,0,0-2.816,3.241c-1.057,1.82-10.907,5.985-13.37,5.985a21.088,21.088,0,0,0-3.134.179s2.673,2.686,2.318,4.246.813,14.051.813,14.051-2.711,3.128-3.869-.974l-.041.062c-.217.338-1.389,1.863-3.6-.062a20.017,20.017,0,0,0-2.867-2.08l-10.68-1.731a26.4,26.4,0,0,0-3.344-.027c-1.694.159-3.358-.99-4.4-1.879-2.213.963-4.7,2.014-5.882,2.4-2.4.776-13.425,4.165-16,3.105a3.635,3.635,0,0,1-1.389-1.133l-2.46.089,1.152.264s-2.243.043-5.293.089l.129.085-3.825-.039c-5.6.058-11.886.078-12.713-.136-1.295-.33-8.02-.1-10,0h-.552s-7.39-1.688-4.341-10.278c2.345-6.6,9.552-8.516,12.75-9.044-.9-.206-1.677-.365-2.192-.458-2.233-.388-6.57-2.717-6.922-3.513s-3.988-3.105-4.927-4.421S463,196.763,465.23,189.866Zm61.21,19.3.363.136.244.093.468.528c.373-.287.773-.59,1.189-.9C527.968,209.075,527.213,209.125,526.44,209.168Zm-32.294,10.938Z" transform="translate(-360.908 -43.42)" fill="url(#linear-gradient)"/>
    <path id="패스_357" data-name="패스 357" d="M700.542,289.539s-5.184,15.526-8.132,13.973-2.148-8.151-2.711-9.96-1.186-15.526-1.186-15.526-.285-9.7-.847-11.668c-.522-1.8-.945-10.907-1.016-12.339v-.19l.559-11.256,3.165-.9,7.339,3.105,1.016,6.649.4,2.6.169,1.106Z" transform="translate(-556.615 -164.717)" fill="#be6f72"/>
    <path id="패스_358" data-name="패스 358" d="M700.534,358.3s-4.947,4.638-6.438,5.046-2.406,4.025-2.406,4.025" transform="translate(-558.314 -236.078)" opacity="0.1"/>
    <path id="패스_359" data-name="패스 359" d="M526,291.289s5.184,15.526,8.132,13.973,2.148-8.151,2.711-9.96,1.186-15.526,1.186-15.526.285-9.7.847-11.667c.522-1.8.945-10.907,1.017-12.339v-.19l-.563-11.256-3.165-.9-7.339,3.105-1.017,6.649-.4,2.6-.169,1.106Z" transform="translate(-341.531 -165.787)" fill="#be6f72"/>
    <rect id="사각형_495" data-name="사각형 495" width="11.571" height="20.661" transform="translate(150.711 42.417)" fill="#3e373a"/>
    <rect id="사각형_496" data-name="사각형 496" width="11.571" height="20.661" transform="translate(150.711 42.417)" opacity="0.1"/>
    <path id="패스_360" data-name="패스 360" d="M603.98,404.643s3.954,4.98,2.487,5.884-10.958,17.854-10.958,17.854-31.173,4.4-37.052-2.2-5.76-18.386-5.76-18.386,4.723,1.164,5.238.532,3.344-3.683,3.344-3.683S601.269,401.864,603.98,404.643Z" transform="translate(-417.477 -263.678)" fill="#4b4b5b"/>
    <path id="패스_361" data-name="패스 361" d="M603.98,404.643s3.954,4.98,2.487,5.884-10.958,17.854-10.958,17.854-31.173,4.4-37.052-2.2-5.76-18.386-5.76-18.386,4.723,1.164,5.238.532,3.344-3.683,3.344-3.683S601.269,401.864,603.98,404.643Z" transform="translate(-417.477 -263.678)" opacity="0.02"/>
    <path id="패스_362" data-name="패스 362" d="M527.669,188.105l10.165,9.315,3.073.256,1.128.093,18.951,1.591,19.652-1.646,2.924-.245,3.727-.311,7.793-8.539a143.878,143.878,0,0,0-10.348-11.338,21.231,21.231,0,0,0-5.015-3.839l-.224-.089a5.638,5.638,0,0,1-2.148-1.716c-3.815-4.506-7.343-15.626-7.343-15.626s-16.83-9.96-14.8,3.105-7.566,9.835-7.566,9.835l-3.165,1.653-1.25.656-3.188,1.673-7.193,3.78C527.2,179.694,527.669,188.105,527.669,188.105Z" transform="translate(-397.285 -110.085)" fill="#be6f72"/>
    <ellipse id="타원_125" data-name="타원 125" cx="15.136" cy="17.338" rx="15.136" ry="17.338" transform="translate(149.356 21.892)" opacity="0.1"/>
    <path id="패스_363" data-name="패스 363" d="M526.327,233.483h68v-.19l-.562-11.256A143.864,143.864,0,0,0,583.417,210.7l-42.693-1.941-1.986-2.4-7.193,3.781c-5.648,2.973-5.194,11.384-5.194,11.384S525.578,231.271,526.327,233.483Z" transform="translate(-395.966 -143.112)" opacity="0.1"/>
    <path id="패스_364" data-name="패스 364" d="M526.327,232.483h68v-.19l-.562-11.256A143.872,143.872,0,0,0,583.417,209.7l-42.693-1.941-1.986-2.4-7.193,3.78c-5.648,2.973-5.194,11.384-5.194,11.384S525.578,230.271,526.327,232.483Z" transform="translate(-395.966 -142.5)" fill="#e7c7ca"/>
    <path id="패스_365" data-name="패스 365" d="M613.094,188.574s-10.727,15.658-25.016-.322-1.582,35.643-1.582,35.643l30.834,4.192Z" transform="translate(-437.703 -130.154)" opacity="0.1"/>
    <path id="패스_366" data-name="패스 366" d="M613.094,190.574s-10.727,15.658-25.016-.322-1.582,35.643-1.582,35.643l30.834,4.192Z" transform="translate(-437.703 -131.378)" fill="#e7c7ca"/>
    <path id="패스_367" data-name="패스 367" d="M557.034,201.99l-1.135,19.83-1.216,6.6-.928,5.046s-2.372,38.814-1.694,40.755-.339,3.493-.481,4.526.142,3.625.03,4.79,0,1.681,2.6,1.265,6.214-1.137,6.214-1.137,9.148.776,12.31-.516,9.149-1.3,9.149-1.3,9.037.26,11.971-.128,4.52,4.141,6.438,2.845-2.257-13.841-3.612-17.466,1.806-12.809,1.806-12.809l-4.066-25.838-.9-5.857V204.183l-.224-.089a5.639,5.639,0,0,1-2.148-1.716l-1.016,18.53-31.851,1.3V201.35" transform="translate(-411.073 -140.047)" opacity="0.1"/>
    <path id="패스_368" data-name="패스 368" d="M557.034,199.99,555.9,219.82l-1.216,6.6-.928,5.046s-2.372,38.814-1.694,40.755-.339,3.493-.481,4.526.142,3.625.03,4.79,0,1.681,2.6,1.265,6.214-1.137,6.214-1.137,9.148.776,12.31-.516,9.149-1.3,9.149-1.3,9.037.26,11.971-.128,4.52,4.142,6.438,2.845-2.257-13.841-3.612-17.466,1.806-12.809,1.806-12.809l-4.066-25.838-.9-5.857V202.183l-.224-.089a5.638,5.638,0,0,1-2.148-1.716l-1.016,18.53-31.851,1.3V199.35" transform="translate(-411.073 -138.823)" fill="#e7c7ca"/>
    <path id="패스_369" data-name="패스 369" d="M538.2,65.549a4.5,4.5,0,0,1,1.017-2.2,3.889,3.889,0,0,1,1.789-.838,31.382,31.382,0,0,1,4.7-1.032,9.211,9.211,0,0,1,1.017-2.418c3.32-5.372,8.234-10.437,14.014-11.582,3.026-.6,6.533-.062,8.471,2.67,1.064,1.5,1.521,3.493,2.6,4.968,2.07,2.864,5.808,3.218,8.417,5.434a17.413,17.413,0,0,1,3.388,4.491,16.376,16.376,0,0,1,2.5,5.741c.678,4.235-1.765,8.271-2.216,12.545-1.016,9.56,7.929,18.041,6.238,27.472-.986,5.5-5.421,9.374-10.009,11.338-1.616.695-3.463,1.386-4.218,3.163-.339.776-.4,1.673-.715,2.457-1.071,2.616-4.591,2.717-6.482.811s-2.487-4.988-2.711-7.864c-.908-12.56,3.483-24.969,2.971-37.56-.152-3.808-1.088-8.128-4.066-9.851-4.008-2.329-8.83,1.553-13.242.811A34.2,34.2,0,0,0,550.4,92.47c.7,3.35,1.914,6.6,2,10.053.132,5.259-2.345,10.064-4.486,14.714a8.579,8.579,0,0,0-.9,2.837,7.715,7.715,0,0,0,.485,2.969c1.21,3.73,3.3,7.192,3.534,11.163a2.017,2.017,0,0,1-.254,1.327,1.38,1.38,0,0,1-.874.45c-3.659.718-6.824-3-8.61-6.726a35.028,35.028,0,0,1-3.4-13.4c-.369-7.9,2.1-15.677,1.952-23.587C539.671,83.279,536.124,74.224,538.2,65.549Z" transform="translate(-395.903 -45.765)" opacity="0.1"/>
    <path id="패스_370" data-name="패스 370" d="M539.2,64.549a4.5,4.5,0,0,1,1.016-2.2,3.889,3.889,0,0,1,1.789-.838,31.382,31.382,0,0,1,4.7-1.032,9.207,9.207,0,0,1,1.017-2.418c3.321-5.372,8.234-10.437,14.014-11.582,3.026-.6,6.533-.062,8.471,2.67,1.064,1.5,1.521,3.493,2.6,4.968,2.07,2.864,5.808,3.218,8.417,5.434a17.406,17.406,0,0,1,3.388,4.491,16.375,16.375,0,0,1,2.5,5.741c.678,4.235-1.765,8.271-2.216,12.545-1.017,9.56,7.929,18.041,6.238,27.473-.986,5.5-5.421,9.374-10.009,11.338-1.616.695-3.463,1.386-4.219,3.163-.339.776-.4,1.673-.715,2.457-1.071,2.616-4.591,2.717-6.482.811s-2.487-4.988-2.711-7.864c-.908-12.56,3.483-24.969,2.972-37.56-.153-3.808-1.088-8.128-4.066-9.851-4.008-2.329-8.83,1.553-13.242.811A34.2,34.2,0,0,0,551.4,91.47c.7,3.35,1.914,6.6,2,10.053.132,5.259-2.345,10.064-4.486,14.714a8.583,8.583,0,0,0-.9,2.837,7.717,7.717,0,0,0,.484,2.969c1.21,3.73,3.3,7.192,3.534,11.163a2.017,2.017,0,0,1-.254,1.327,1.381,1.381,0,0,1-.874.45c-3.659.718-6.824-3-8.61-6.726a35.032,35.032,0,0,1-3.4-13.4c-.369-7.9,2.1-15.677,1.952-23.587C540.671,82.279,537.124,73.224,539.2,64.549Z" transform="translate(-397.241 -45.153)" fill="#3e373a"/>
    <path id="패스_371" data-name="패스 371" d="M595.232,475.506,581.79,476l1.928-11.419,10.3,1.122Z" transform="translate(-445.788 -284.253)" fill="#c3c7d9"/>
    <path id="패스_372" data-name="패스 372" d="M611.146,428.493c.9,1.292,4.4,3.621,4.744,4.4s4.517,3.105,6.665,3.493,8.922,2.073,10.165,2.977c.891.652,8.044,2.717,12.744,3.862a32.041,32.041,0,0,0,3.859.8c2.033.128,24.281-8.539,24.281-8.539l-4.29-5.046-.237-.093c-1.213-.47-6.817-2.639-9.928-3.672-3.5-1.164-7.57-5.95-7.57-5.95s-5.984-2.329-6.777-2.589,2.033-9.055,2.033-9.055-12.987-2.065-18.07-3.815-16.83-1.1-18.975,5.756S610.227,427.2,611.146,428.493Z" transform="translate(-503.351 -264.306)" fill="#4b4b5b"/>
    <path id="패스_373" data-name="패스 373" d="M533.96,501.133s2.6,3.105,5.194,2.849,11.686.776,11.686.776a17.823,17.823,0,0,1,4.578,3.039c2.125,1.917,3.253.388,3.463.062l.037-.062c1.132,4.079,3.727.97,3.727.97s-1.128-12.42-.783-13.973-2.233-4.219-2.233-4.219l-3.049-.889-7.725-2.267-11.07,4.4Z" transform="translate(-366.981 -315.081)" fill="#e7c7ca"/>
    <path id="패스_374" data-name="패스 374" d="M533.96,493.26l2.287,18.173.037-.062c1.132,4.079,3.727.97,3.727.97s-1.128-12.421-.783-13.973S537,494.149,537,494.149Z" transform="translate(-344.347 -318.655)" opacity="0.1"/>
    <path id="패스_375" data-name="패스 375" d="M610.182,360.08s-5.984,2.329-11.182,0" transform="translate(-436.555 -237.167)" opacity="0.1"/>
    <path id="패스_376" data-name="패스 376" d="M663.695,371.42s-2.484,1.421-4.4,0" transform="translate(-510.497 -244.106)" opacity="0.1"/>
    <path id="패스_377" data-name="패스 377" d="M664.261,379.072s-4.178.64-4.971-.652" transform="translate(-511.062 -248.389)" opacity="0.1"/>
    <path id="패스_378" data-name="패스 378" d="M665.086,394.467s-7.847-1.164-9.8-2.717" transform="translate(-510.532 -256.545)" opacity="0.1"/>
    <path id="패스_379" data-name="패스 379" d="M592.3,391.75s-4.4,2.845-7.681,2.717" transform="translate(-413.802 -256.545)" opacity="0.1"/>
    <path id="패스_380" data-name="패스 380" d="M608.979,484.062a32.058,32.058,0,0,0,3.859.8c2.033.128,24.281-8.539,24.281-8.539l-4.29-5.046-.237-.093c-.678.547-1.233,1.017-1.63,1.374-1.867,1.685-3.67-.516-4.347-.516s-6.55,5.562-6.55,5.562-5.421,1.424-6.326,2.717-4.066,1.036-4.628,1.941A3.934,3.934,0,0,0,608.979,484.062Z" transform="translate(-466.864 -305.145)" opacity="0.1"/>
    <path id="패스_381" data-name="패스 381" d="M512.484,410.509s5.482.361,8.644-1.164,13.665-5.046,16.715-2.573,10.392,4.658,7,14.493-4.971,10.092-4.971,10.092a13.367,13.367,0,0,0-2.711,3.221c-1.017,1.813-10.5,5.95-12.876,5.95s-6.55,0-12.422,4.658-11.182,5.178-11.182,5.178-7.454,3.493-9.775,4.27-12.927,4.138-15.414,3.105-4.066-7.507-4.066-7.507-1.128-5.822-.562-6.726,3.727-.648,4.629-1.941,6.326-2.717,6.326-2.717,5.858-5.566,6.536-5.566,2.48,2.2,4.347.516a98.552,98.552,0,0,1,11.693-8.539C508.689,422.669,512.484,410.509,512.484,410.509Z" transform="translate(-328.625 -265.212)" fill="#4b4b5b"/>
    <path id="패스_382" data-name="패스 382" d="M553.656,427.183a5.9,5.9,0,0,0-5.554,1.681c-2.711,2.589-11.832,7.786-11.832,7.786" transform="translate(-358.774 -278.133)" opacity="0.1"/>
    <path id="패스_383" data-name="패스 383" d="M693.96,427s12.086,2.1,14.343,4.941" transform="translate(-566.852 -278.113)" opacity="0.1"/>
    <path id="패스_384" data-name="패스 384" d="M690.508,506.827h.532c1.911-.078,8.386-.31,9.633,0,1.467.388,20.9,0,20.9,0l-3.8-.9s1.409-5.659.515-6.129c0,0,5.083-3.835,1.25-6.424a10.545,10.545,0,0,0-7.963-1.5l-9.62-3.734-1.847-.718s-10.843.648-13.777,9.187S690.508,506.827,690.508,506.827Z" transform="translate(-577.292 -315.081)" fill="#e7c7ca"/>
    <path id="패스_385" data-name="패스 385" d="M748.4,506.857h.532c-3.155-2.981-10.291-12.055,10.914-18.669L758,487.47s-10.843.648-13.777,9.187S748.4,506.857,748.4,506.857Z" transform="translate(-635.182 -315.112)" opacity="0.1"/>
    <ellipse id="타원_126" data-name="타원 126" cx="0.593" cy="0.679" rx="0.593" ry="0.679" transform="translate(132.556 180.326)" fill="#4b4b5b"/>
    <ellipse id="타원_127" data-name="타원 127" cx="0.593" cy="0.679" rx="0.593" ry="0.679" transform="translate(136.002 181.448)" fill="#4b4b5b"/>
    <g id="그룹_118" data-name="그룹 118" transform="translate(141.205 24.415)" opacity="0.1">
      <path id="패스_386" data-name="패스 386" d="M601.821,120.7a34.031,34.031,0,0,1,1.945-12.475c4.4.753,9.23-3.14,13.242-.811,2.968,1.723,3.9,6.043,4.066,9.851.041,1.005.047,2.011.031,3.016,0-.357,0-.718-.031-1.075-.156-3.808-1.088-8.128-4.066-9.851-4.012-2.329-8.83,1.553-13.242.811A33.819,33.819,0,0,0,601.821,120.7Z" transform="translate(-589.641 -106.526)"/>
      <path id="패스_387" data-name="패스 387" d="M551.037,121.219a14.814,14.814,0,0,1,.044-2.538c.359-3.416,1.989-6.68,2.284-10.01.38,4.017-1.853,7.875-2.284,11.951A2.772,2.772,0,0,0,551.037,121.219Z" transform="translate(-504.723 -107.754)"/>
      <path id="패스_388" data-name="패스 388" d="M538.94,212.745c.21,2.88.8,5.958,2.711,7.868s5.421,1.8,6.482-.811c.339-.776.39-1.681.718-2.457.752-1.778,2.6-2.469,4.219-3.163,4.591-1.968,9.02-5.822,10.006-11.338a13.56,13.56,0,0,0,.18-1.514,13.974,13.974,0,0,1-.18,3.454c-.986,5.5-5.421,9.37-10.006,11.338-1.616.695-3.466,1.386-4.219,3.163-.339.776-.4,1.673-.718,2.457-1.067,2.616-4.588,2.717-6.482.811s-2.484-4.988-2.711-7.868q-.155-2.274-.105-4.557C538.835,211.01,538.879,211.88,538.94,212.745Z" transform="translate(-510.479 -164.449)"/>
      <path id="패스_389" data-name="패스 389" d="M690.219,126.175v1.681c-.19-7.219-2.5-14.478-2.274-21.546C688.122,112.846,690.09,119.53,690.219,126.175Z" transform="translate(-687.93 -106.31)"/>
      <path id="패스_390" data-name="패스 390" d="M650.875,204.958a5.725,5.725,0,0,1-.078-1.4,8.508,8.508,0,0,1,.9-2.837c1.958-4.27,4.191-8.64,4.456-13.379,0,.2.024.388.027.605.135,5.255-2.341,10.064-4.483,14.714a10.126,10.126,0,0,0-.827,2.3Z" transform="translate(-641.315 -155.889)"/>
      <path id="패스_391" data-name="패스 391" d="M654.807,217.036a35.077,35.077,0,0,0,3.419,13.4c1.789,3.73,4.951,7.444,8.613,6.726a1.366,1.366,0,0,0,.874-.454,1.01,1.01,0,0,0,.159-.3c.041.3.074.609.095.92a2,2,0,0,1-.254,1.324,1.366,1.366,0,0,1-.874.454c-3.663.718-6.824-3-8.613-6.726a35.077,35.077,0,0,1-3.419-13.4c-.041-.908-.044-1.813-.02-2.717C654.794,216.52,654.794,216.776,654.807,217.036Z" transform="translate(-654.466 -173.584)"/>
    </g>
    <path id="패스_392" data-name="패스 392" d="M709.541,511.419s-8.576,4.122-14.231-5" transform="translate(-568.548 -326.707)" fill="none" stroke="#000" stroke-miterlimit="10" stroke-width="1" opacity="0.1"/>
    <path id="패스_393" data-name="패스 393" d="M716.215,534.124s-7-5.217-15.925-.171" transform="translate(-576.909 -342.208)" fill="none" stroke="#000" stroke-miterlimit="10" stroke-width="1" opacity="0.1"/>
    <path id="패스_394" data-name="패스 394" d="M572.725,528.531s-2.941-7.6-10.8-1.8" transform="translate(-386.538 -337.798)" fill="none" stroke="#000" stroke-miterlimit="10" stroke-width="1" opacity="0.1"/>
    <path id="패스_395" data-name="패스 395" d="M596.922,233.279l-6-6.21s-23.254-1.747-24.216,7.309c0,0-8.244-10.736-25.582-8.345l-7.336,6.692,20.276,10.193,19.7,7.829,14.512-7.441Z" transform="translate(-401.2 -154.936)" opacity="0.1"/>
    <path id="패스_396" data-name="패스 396" d="M596.922,234.279l-6-6.21s-23.254-1.747-24.216,7.309c0,0-8.244-10.736-25.582-8.345l-7.336,6.691,20.276,10.193,19.7,7.829,14.512-7.441Z" transform="translate(-401.2 -155.548)" fill="#d5d6db"/>
    <path id="패스_397" data-name="패스 397" d="M468.156,204.83,465.5,241.187l-28.123,1.619,1.22-36.2.024-.609Z" transform="translate(-269.781 -125.323)" opacity="0.1"/>
    <path id="패스_398" data-name="패스 398" d="M468.156,202.83,465.5,239.187l-28.123,1.619,1.22-36.2.024-.609Z" transform="translate(-269.781 -124.099)" fill="#6c63ff"/>
    <path id="패스_399" data-name="패스 399" d="M549.71,202.83l29.011,4.984v36.52l-28.35-4.693Z" transform="translate(-418.407 -124.099)" opacity="0.1"/>
    <path id="패스_400" data-name="패스 400" d="M549.71,200.83l29.011,4.984v36.52l-28.35-4.693Z" transform="translate(-418.407 -122.875)" fill="#6c63ff"/>
    <path id="패스_401" data-name="패스 401" d="M568.89,223.79l15.671,2-.342,6.117L568.9,229.985Z" transform="translate(-430.746 -136.924)" fill="#fff" opacity="0.3"/>
    <path id="패스_402" data-name="패스 402" d="M557.651,339.038l-1.6,4.918s-2.372,2.329-4.967,1.164-4.859-1.743-5.987-2.876-2.711-6.827-2.711-6.827-1.582-6.21-3.161-7.763-5.76-22.943,0-20.851,10.165,21.5,10.165,21.5a3.965,3.965,0,0,0,2.484,1.553c1.467.132,4.4-.26,4.971,1.164S559.345,336.193,557.651,339.038Z" transform="translate(-363.454 -204.481)" fill="#be6f72"/>
    <path id="패스_403" data-name="패스 403" d="M613.18,255.25a8.876,8.876,0,0,0,8.508-2.43l-1.223,36.2s-2.88,3.571-7.285,2.756Z" transform="translate(-452.866 -171.539)" opacity="0.1"/>
    <path id="패스_404" data-name="패스 404" d="M613.18,253.25a8.876,8.876,0,0,0,8.508-2.43l-1.223,36.2s-2.88,3.571-7.285,2.756Z" transform="translate(-452.866 -170.315)" fill="#6c63ff"/>
    <path id="패스_405" data-name="패스 405" d="M613.18,253.25a8.876,8.876,0,0,0,8.508-2.43l-1.223,36.2s-2.88,3.571-7.285,2.756Z" transform="translate(-452.866 -170.315)" opacity="0.1"/>
    <path id="패스_406" data-name="패스 406" d="M655.168,240.883s-11.8-4.134-14.878-3.551" transform="translate(-495.532 -162.028)" opacity="0.1"/>
    <path id="패스_407" data-name="패스 407" d="M561.93,238.166s11.439-3.105,13.35-2.224" transform="translate(-389.093 -161.116)" opacity="0.1"/>
    <path id="패스_408" data-name="패스 408" d="M672.995,244.489s-7.892-3.315-10.745-1.739" transform="translate(-520.799 -165.118)" opacity="0.1"/>
    <path id="패스_409" data-name="패스 409" d="M660.17,451.41a25.666,25.666,0,0,0-3.89-2.767,62.726,62.726,0,0,1-5.76-4.033" transform="translate(-504 -288.888)" opacity="0.1"/>
    <path id="패스_410" data-name="패스 410" d="M535.83,360.08s4.95,4.638,6.438,5.046,2.406,4.025,2.406,4.025" transform="translate(-349.643 -237.167)" opacity="0.1"/>
    <path id="패스_411" data-name="패스 411" d="M652.97,337.277l1.579,4.929s2.372,2.329,4.971,1.164,4.855-1.743,5.987-2.876,2.711-6.827,2.711-6.827,1.579-6.21,3.161-7.763,5.76-22.943,0-20.851-10.165,21.5-10.165,21.5a3.964,3.964,0,0,1-2.484,1.553c-1.467.132-4.4-.26-4.971,1.164S651.275,334.443,652.97,337.277Z" transform="translate(-518.756 -203.41)" fill="#be6f72"/>
    <path id="패스_412" data-name="패스 412" d="M710.372,364.94s-3.236,2.383-3.222,5.232" transform="translate(-573.391 -240.141)" opacity="0.1"/>
    <ellipse id="타원_128" data-name="타원 128" cx="15.136" cy="17.338" rx="15.136" ry="17.338" transform="translate(149.302 21.042)" fill="#be6f72"/>
    <path id="패스_413" data-name="패스 413" d="M602.692,101.485c-1.836-.33-3.446-1.553-5.2-2.255-3.927-1.58-8.271-.5-12.246.928a14.179,14.179,0,0,1-4.673,1.164,4.56,4.56,0,0,1-4.113-2.329,5.95,5.95,0,0,1,.027-4.863,13.517,13.517,0,0,1,2.765-3.909c3.524-3.812,7.895-7.375,12.73-6.987a15.869,15.869,0,0,1,5.594,1.836,59.027,59.027,0,0,1,6.567,3.788c1.63,1.083,4.649,2.531,5.587,4.51C611.864,97.828,606.012,102.082,602.692,101.485Z" transform="translate(-428.75 -67.758)" fill="#3e373a"/>
    <path id="패스_414" data-name="패스 414" d="M576.457,114.834a4.56,4.56,0,0,0,4.114,2.329,14.179,14.179,0,0,0,4.676-1.141c3.975-1.424,8.315-2.511,12.245-.928,1.752.7,3.365,1.941,5.2,2.251,2.677.481,6.987-2.189,7.454-5.585.525,3.924-4.473,7.285-7.454,6.75-1.837-.33-3.449-1.553-5.2-2.251-3.93-1.584-8.271-.5-12.245.928a13.607,13.607,0,0,1-4.676,1.141A4.6,4.6,0,0,1,576.457,116a5.11,5.11,0,0,1-.474-2.837A4.621,4.621,0,0,0,576.457,114.834Z" transform="translate(-428.748 -85.23)" opacity="0.1"/>
    <path id="패스_415" data-name="패스 415" d="M1026.186,661.63s-2.009,3.008.928,7.553,5.357,8.38,4.381,11.213c0,0-4.432-8.438-8.037-8.558S1022.225,666.7,1026.186,661.63Z" transform="translate(-1001.308 -421.674)" fill="#6c63ff"/>
    <path id="패스_416" data-name="패스 416" d="M1026.525,661.63a3.973,3.973,0,0,0-.41.943c-3.517,4.735-5.394,9.156-2.009,9.265,3.151.1,6.929,6.56,7.834,8.186q-.043.2-.1.388s-4.432-8.438-8.037-8.559S1022.564,666.7,1026.525,661.63Z" transform="translate(-1001.647 -421.674)" opacity="0.1"/>
    <path id="패스_417" data-name="패스 417" d="M1047.63,670.443a.973.973,0,1,0,.464,0c0-1.06-.129-.559-.258-.559S1047.63,669.383,1047.63,670.443Z" transform="translate(-1026.479 -426.651)" fill="#ffd037"/>
    <path id="패스_418" data-name="패스 418" d="M1048.61,673.593c.81.5,1.518.811,1.579.683s-.545-.644-1.355-1.164-.491-.14-.552,0S1047.8,673.084,1048.61,673.593Z" transform="translate(-1028.744 -428.536)" fill="#ffd037"/>
    <path id="패스_419" data-name="패스 419" d="M998.887,661.63s2.009,3.008-.928,7.553-5.357,8.38-4.378,11.213c0,0,4.429-8.438,8.037-8.558S1002.838,666.7,998.887,661.63Z" transform="translate(-963.39 -421.674)" fill="#6c63ff"/>
    <path id="패스_420" data-name="패스 420" d="M998.774,661.63a3.974,3.974,0,0,1,.41.943c3.517,4.735,5.394,9.156,2.009,9.265-3.148.1-6.929,6.56-7.834,8.186a3.32,3.32,0,0,0,.109.388s4.429-8.438,8.037-8.559S1002.725,666.7,998.774,661.63Z" transform="translate(-963.277 -421.674)" opacity="0.1"/>
    <path id="패스_421" data-name="패스 421" d="M996.1,670.443a.973.973,0,1,1-.464,0c0-1.06.132-.559.258-.559S996.1,669.383,996.1,670.443Z" transform="translate(-956.873 -426.651)" fill="#ffd037"/>
    <path id="패스_422" data-name="패스 422" d="M991.988,673.593c-.81.5-1.518.811-1.579.683s.546-.644,1.355-1.164.491-.14.552,0S992.8,673.084,991.988,673.593Z" transform="translate(-951.476 -428.536)" fill="#ffd037"/>
    <ellipse id="타원_129" data-name="타원 129" cx="21.008" cy="3.691" rx="21.008" ry="3.691" transform="translate(9.18 274.365)" fill="#6c63ff" opacity="0.1"/>
    <path id="패스_423" data-name="패스 423" d="M990.4,697.315l.1.939.142,1.327.058.555.142,1.327.061.555.139,1.324,1.609,15.1c.142,1.347,2.064,2.4,4.385,2.4h8.352c2.321,0,4.239-1.052,4.385-2.4l1.609-15.1.142-1.324.058-.555.142-1.327.061-.555.139-1.327.1-.939c.078-.776-.959-1.405-2.274-1.405H992.672C991.361,695.91,990.321,696.55,990.4,697.315Z" transform="translate(-971.027 -442.648)" fill="#65617d"/>
    <path id="패스_424" data-name="패스 424" d="M902.13,658.53l.139,1.328h21.143l.142-1.328Z" transform="translate(-882.653 -402.924)" fill="#9d9cb5"/>
    <path id="패스_425" data-name="패스 425" d="M902.72,663.38l.139,1.328H923.6l.142-1.328Z" transform="translate(-883.043 -405.891)" fill="#9d9cb5"/>
    <path id="패스_426" data-name="패스 426" d="M903.32,668.23l.142,1.327H923.8l.139-1.327Z" transform="translate(-883.443 -408.859)" fill="#9d9cb5"/>
  </g>
</svg>
